<svg width="139" height="70" viewBox="0 0 139 70" fill="none" xmlns="http://www.w3.org/2000/svg">
<path d="M124.992 31.0313C124.992 31.3375 125.094 31.4395 125.451 31.4395H128.639C129.378 31.4395 129.582 31.6436 129.582 32.3834V34.067C129.582 34.8068 129.378 35.0109 128.639 35.0109H122.417C121.677 35.0109 121.473 34.8068 121.473 34.067V16.8223C121.473 16.0825 121.677 15.8784 122.417 15.8784H124.049C124.788 15.8784 124.992 16.0825 124.992 16.8223V31.0313Z" fill="currentColor"/>
<path d="M113.4 34.067C113.4 34.8068 113.196 35.0109 112.457 35.0109H110.825C110.085 35.0109 109.881 34.8068 109.881 34.067V27.5365C109.881 26.414 109.932 25.9548 110.238 24.9344L112.559 17.1539C112.865 16.0825 113.12 15.8784 114.446 15.8784H115.364C116.69 15.8784 116.945 16.0825 117.251 17.1539L119.571 24.9344C119.877 25.9293 119.928 26.414 119.928 27.5365V34.067C119.928 34.8068 119.724 35.0109 118.985 35.0109H117.353C116.613 35.0109 116.409 34.8068 116.409 34.067V30.6997C116.409 30.3426 116.307 30.2405 115.95 30.2405H113.859C113.502 30.2405 113.4 30.3426 113.4 30.6997V34.067ZM116.027 26.6691C116.307 26.6691 116.46 26.5671 116.46 26.3375C116.46 26.2099 116.435 26.0824 116.409 25.9548L115.236 21.0314C115.185 20.7763 115.134 20.7253 114.905 20.7253C114.675 20.7253 114.624 20.7763 114.573 21.0314L113.4 25.9548C113.375 26.0824 113.349 26.2099 113.349 26.3375C113.349 26.5671 113.502 26.6691 113.783 26.6691H116.027Z" fill="currentColor"/>
<path d="M104.959 16.8223C104.959 16.0825 105.163 15.8784 105.902 15.8784H107.534C108.274 15.8784 108.478 16.0825 108.478 16.8223V29.6538C108.478 33.7609 107.254 35.266 103.556 35.266C99.8586 35.266 98.6346 33.7609 98.6346 29.6538V16.8223C98.6346 16.0825 98.8386 15.8784 99.5781 15.8784H101.21C101.95 15.8784 102.154 16.0825 102.154 16.8223V30.266C102.154 31.2864 102.587 31.6946 103.556 31.6946C104.5 31.6946 104.959 31.2864 104.959 30.266V16.8223Z" fill="currentColor"/>
<path d="M92.9136 34.067V27.1793C92.9136 26.8222 92.8116 26.7201 92.4546 26.7201H90.3635C90.0065 26.7201 89.9045 26.8222 89.9045 27.1793V34.067C89.9045 34.8068 89.7005 35.0109 88.961 35.0109H87.329C86.5895 35.0109 86.3855 34.8068 86.3855 34.067V16.8223C86.3855 16.0825 86.5895 15.8784 87.329 15.8784H88.961C89.7005 15.8784 89.9045 16.0825 89.9045 16.8223V22.6896C89.9045 23.0212 90.0065 23.1487 90.3635 23.1487H92.4546C92.8116 23.1487 92.9136 23.0212 92.9136 22.6896V16.8223C92.9136 16.0825 93.1176 15.8784 93.8571 15.8784H95.4891C96.2286 15.8784 96.4326 16.0825 96.4326 16.8223V34.067C96.4326 34.8068 96.2286 35.0109 95.4891 35.0109H93.8571C93.1176 35.0109 92.9136 34.8068 92.9136 34.067Z" fill="currentColor"/>
<path d="M78.3123 34.067C78.3123 34.8068 78.1083 35.0109 77.3688 35.0109H75.7368C74.9973 35.0109 74.7933 34.8068 74.7933 34.067V27.5365C74.7933 26.414 74.8443 25.9548 75.1503 24.9344L77.4708 17.1539C77.7768 16.0825 78.0318 15.8784 79.3578 15.8784H80.2758C81.6018 15.8784 81.8568 16.0825 82.1628 17.1539L84.4834 24.9344C84.7894 25.9293 84.8404 26.414 84.8404 27.5365V34.067C84.8404 34.8068 84.6364 35.0109 83.8968 35.0109H82.2648C81.5253 35.0109 81.3213 34.8068 81.3213 34.067V30.6997C81.3213 30.3426 81.2193 30.2405 80.8623 30.2405H78.7713C78.4143 30.2405 78.3123 30.3426 78.3123 30.6997V34.067ZM80.9388 26.6691C81.2193 26.6691 81.3723 26.5671 81.3723 26.3375C81.3723 26.2099 81.3468 26.0824 81.3213 25.9548L80.1483 21.0314C80.0973 20.7763 80.0463 20.7253 79.8168 20.7253C79.5873 20.7253 79.5363 20.7763 79.4853 21.0314L78.3123 25.9548C78.2868 26.0824 78.2613 26.2099 78.2613 26.3375C78.2613 26.5671 78.4143 26.6691 78.6948 26.6691H80.9388Z" fill="currentColor"/>
<path d="M69.2786 22.1794C69.4061 22.409 69.4571 22.46 69.6101 22.46C69.7631 22.46 69.8141 22.3834 69.8141 22.2049V16.8223C69.8141 16.0825 70.0181 15.8784 70.7576 15.8784H72.3132C73.0527 15.8784 73.2567 16.0825 73.2567 16.8223V34.067C73.2567 34.8068 73.0527 35.0109 72.3132 35.0109H70.7576C70.0181 35.0109 69.8141 34.8068 69.8141 34.067V30.5722C69.8141 29.3732 69.6356 28.9395 69.2021 28.1232L66.8306 23.71C66.7031 23.4804 66.6521 23.4294 66.4991 23.4294C66.3461 23.4294 66.2951 23.5059 66.2951 23.6845V34.067C66.2951 34.8068 66.0911 35.0109 65.3516 35.0109H63.7961C63.0566 35.0109 62.8526 34.8068 62.8526 34.067V16.8223C62.8526 16.0825 63.0566 15.8784 63.7961 15.8784H64.7906C65.7341 15.8784 66.0911 16.0314 66.6266 17.0774L69.2786 22.1794Z" fill="currentColor"/>
<path d="M123.317 51.8475C123.317 56.1587 122.093 57.7148 118.396 57.7148C114.698 57.7148 113.474 56.1587 113.474 51.8475V43.9394C113.474 39.6537 114.698 38.0721 118.396 38.0721C122.093 38.0721 123.317 39.6537 123.317 43.9394V51.8475ZM117.095 52.7149C117.095 53.7353 117.503 54.1434 118.396 54.1434C119.288 54.1434 119.696 53.7353 119.696 52.7149V43.1996C119.696 42.0772 119.288 41.6435 118.396 41.6435C117.503 41.6435 117.095 42.0772 117.095 43.1996V52.7149Z" fill="currentColor"/>
<path d="M111.421 39.2711V56.5159C111.421 57.2557 111.217 57.4597 110.478 57.4597H108.846C108.106 57.4597 107.902 57.2557 107.902 56.5159V39.2711C107.902 38.5313 108.106 38.3272 108.846 38.3272H110.478C111.217 38.3272 111.421 38.5313 111.421 39.2711Z" fill="currentColor"/>
<path d="M100.128 38.3272C105.024 38.3272 106.019 40.1129 106.019 44.4496V51.3373C106.019 55.674 105.024 57.4597 100.128 57.4597H97.0169C96.2774 57.4597 96.0734 57.2557 96.0734 56.5159V39.2711C96.0734 38.5313 96.2774 38.3272 97.0169 38.3272H100.128ZM100.051 41.8986C99.6944 41.8986 99.5924 42.0007 99.5924 42.3578V53.4291C99.5924 53.7608 99.6944 53.8883 100.051 53.8883H100.332C101.76 53.8883 102.397 53.2251 102.397 51.5669V44.22C102.397 42.5619 101.76 41.8986 100.332 41.8986H100.051Z" fill="currentColor"/>
<path d="M90.3665 39.2711C90.3665 38.5313 90.5705 38.3272 91.31 38.3272H92.9421C93.6816 38.3272 93.8856 38.5313 93.8856 39.2711V52.1026C93.8856 56.2097 92.6616 57.7148 88.964 57.7148C85.2665 57.7148 84.0425 56.2097 84.0425 52.1026V39.2711C84.0425 38.5313 84.2465 38.3272 84.986 38.3272H86.618C87.3575 38.3272 87.5615 38.5313 87.5615 39.2711V52.7149C87.5615 53.7353 87.995 54.1434 88.964 54.1434C89.9075 54.1434 90.3665 53.7353 90.3665 52.7149V39.2711Z" fill="currentColor"/>
<path d="M82.3043 41.8986H80.7233C80.3663 41.8986 80.2643 42.0007 80.2643 42.3578V56.5159C80.2643 57.2557 80.0602 57.4597 79.3207 57.4597H77.6887C76.9492 57.4597 76.7452 57.2557 76.7452 56.5159V42.3578C76.7452 42.0007 76.6432 41.8986 76.2862 41.8986H74.7052C73.9657 41.8986 73.7617 41.6945 73.7617 40.9547V39.2711C73.7617 38.5313 73.9657 38.3272 74.7052 38.3272H82.3043C83.0438 38.3272 83.2478 38.5313 83.2478 39.2711V40.9547C83.2478 41.6945 83.0438 41.8986 82.3043 41.8986Z" fill="currentColor"/>
<path d="M67.9016 45.1384L71.1656 48.0975C72.8742 49.6282 73.2567 50.5465 73.2567 52.2557V52.7149C73.2567 55.9291 72.0327 57.7148 68.3351 57.7148C64.6376 57.7148 63.4136 56.2097 63.4136 52.1026V51.5924C63.4136 50.8526 63.6176 50.6486 64.3571 50.6486H66.0911C66.8306 50.6486 67.0346 50.8526 67.0346 51.5924V52.7149C67.0346 53.7353 67.4426 54.1434 68.3351 54.1434C69.2276 54.1434 69.6356 53.7608 69.6356 52.8424V52.3577C69.6356 51.6434 69.4826 51.2863 68.5391 50.4445L65.4791 47.7149C63.7706 46.2098 63.4136 45.3425 63.4136 43.6333V43.0721C63.4136 39.8578 64.6376 38.0721 68.3351 38.0721C72.0327 38.0721 73.2567 39.5772 73.2567 43.6843V44.1945C73.2567 44.9343 73.0527 45.1384 72.3132 45.1384H70.5791C69.8396 45.1384 69.6356 44.9343 69.6356 44.1945V43.0721C69.6356 42.0517 69.2276 41.6435 68.3351 41.6435C67.4426 41.6435 67.0346 42.0262 67.0346 42.9445V43.3782C67.0346 44.118 67.1876 44.4751 67.9016 45.1384Z" fill="currentColor"/>
<path d="M39.2336 25.1648C36.6188 25.1648 34.4991 27.2853 34.4991 29.901C34.4991 32.5169 36.6188 34.3676 39.2336 34.3676C41.8483 34.3676 43.968 32.5169 43.968 29.901C43.968 26.5659 41.8483 25.1648 39.2336 25.1648ZM39.2336 25.7831C40.4527 25.7831 41.4678 26.115 42.1692 26.743C42.9527 27.4446 43.35 28.5071 43.35 29.901C43.35 30.9748 42.9283 31.9548 42.1626 32.6606C41.4008 33.3626 40.3606 33.7493 39.2336 33.7493C38.1065 33.7493 37.0663 33.3626 36.3045 32.6606C35.5388 31.9548 35.1172 30.9748 35.1172 29.901C35.1172 27.6304 36.9638 25.7831 39.2336 25.7831Z" fill="currentColor"/>
<path d="M42.4585 29.597C42.4585 31.3977 40.9993 32.8575 39.1993 32.8575C37.3993 32.8575 35.94 31.6675 35.94 29.8668C35.94 28.066 37.3993 26.6062 39.1993 26.6062C40.9993 26.6062 42.4585 27.7963 42.4585 29.597Z" fill="currentColor"/>
<path d="M11.5666 43.1737C11.7124 43.2626 11.9025 43.2164 11.9914 43.0707L11.9913 43.0706L11.9914 43.0705C11.9921 43.0693 11.9936 43.0671 11.9957 43.0639C11.9999 43.0574 12.0069 43.0467 12.0165 43.0326C12.0359 43.0044 12.0661 42.9621 12.1069 42.9101C12.1888 42.8059 12.3122 42.6639 12.4757 42.5168C12.7936 42.2309 13.2517 41.9358 13.8434 41.8472L13.901 41.8393L13.9699 41.8303C14.6814 41.7333 15.3932 41.5134 15.9266 41.3187C16.2035 41.2177 16.4355 41.1222 16.5988 41.0518C16.6804 41.0166 16.7451 40.9876 16.7897 40.9672C16.812 40.957 16.8293 40.9489 16.8412 40.9434C16.8437 40.9421 16.8461 40.941 16.8481 40.9401C17.2451 40.7907 17.4889 40.4716 17.6312 40.1107C17.7736 39.7496 17.8256 39.3223 17.8325 38.9043C17.8453 38.1185 17.6987 37.2867 17.5954 36.8024L17.5754 36.7103C17.5071 36.4018 17.322 36.1302 17.0544 35.9567C16.1628 35.3789 14.6514 34.9334 13.4028 34.6344C12.7707 34.4831 12.1923 34.3663 11.7719 34.2873C11.5617 34.2478 11.3907 34.2177 11.272 34.1975C11.2126 34.1873 11.1663 34.1796 11.1347 34.1745C11.1189 34.1719 11.1068 34.17 11.0986 34.1686C11.0944 34.168 11.0913 34.1675 11.0891 34.1671C11.088 34.167 11.0872 34.1668 11.0866 34.1667C11.0863 34.1667 11.0861 34.1666 11.0859 34.1666H11.0857C11.0856 34.167 11.0837 34.1785 11.0377 34.472L11.0856 34.1666C10.917 34.1401 10.7589 34.2554 10.7325 34.4241C10.706 34.5928 10.8213 34.7509 10.9899 34.7774C10.9899 34.7774 10.9902 34.7775 10.9904 34.7775C10.9908 34.7776 10.9915 34.7776 10.9924 34.7778C10.9943 34.7781 10.9971 34.7785 11.0009 34.7791C11.0085 34.7804 11.02 34.7822 11.0351 34.7847C11.0654 34.7896 11.1102 34.7971 11.168 34.8069C11.2837 34.8267 11.4513 34.8562 11.6578 34.895C12.0711 34.9726 12.6392 35.0873 13.2589 35.2357C14.5138 35.5361 15.9268 35.9627 16.7183 36.4756C16.8471 36.5591 16.9381 36.691 16.9719 36.844C17.072 37.2958 17.2269 38.1297 17.2145 38.8941C17.2082 39.2774 17.1599 39.6209 17.0562 39.8839C16.9545 40.1421 16.8112 40.2965 16.622 40.3647C16.6122 40.3682 16.6025 40.3723 16.593 40.3768C16.593 40.3768 16.5928 40.3769 16.5925 40.3771C16.592 40.3773 16.5912 40.3777 16.59 40.3783C16.5876 40.3794 16.5838 40.3812 16.5787 40.3836C16.5685 40.3883 16.5531 40.3955 16.5327 40.4049C16.4918 40.4235 16.4314 40.4507 16.3541 40.484C16.1996 40.5506 15.9786 40.6415 15.7148 40.7378C15.1842 40.9315 14.4929 41.1422 13.8244 41.2258C13.0413 41.3237 12.4512 41.7075 12.0625 42.057C11.8675 42.2324 11.7201 42.4017 11.6208 42.5283C11.571 42.5917 11.533 42.6447 11.5069 42.6829C11.4938 42.702 11.4836 42.7174 11.4764 42.7285C11.4728 42.7341 11.47 42.7387 11.4678 42.7421C11.4668 42.7438 11.4659 42.7452 11.4652 42.7463C11.4648 42.7469 11.4645 42.7474 11.4643 42.7478C11.4641 42.748 11.464 42.7482 11.4639 42.7484L11.4638 42.7486C11.4637 42.7487 11.4636 42.7488 11.7275 42.9097L11.4636 42.7488C11.3748 42.8946 11.4209 43.0848 11.5666 43.1737ZM11.9912 43.0708L11.9912 43.0708L11.9911 43.071C11.9911 43.0711 11.991 43.0713 11.991 43.0713L11.9912 43.0708Z" fill="currentColor"/>
<path d="M9.48713 36.248C9.48713 36.248 12.4884 38.0333 9.81161 41.8471L9.48713 36.248Z" fill="currentColor"/>
<path d="M11.4422 42.9024C11.4422 42.9024 11.8265 38.5293 13.667 38.7209C15.5075 38.9125 17.5098 39.0581 17.5098 39.0581L17.0545 40.4502L14.6109 41.4187L12.8895 41.8471L11.9586 42.9097L11.4422 42.9024Z" fill="currentColor"/>
<path d="M16.9534 50.9196L16.9545 50.9157C16.9554 50.9128 16.9567 50.9085 16.9584 50.9028C16.9618 50.8913 16.967 50.8742 16.9737 50.8519C16.9871 50.8073 17.0069 50.7417 17.0325 50.6582C17.0835 50.491 17.1574 50.2519 17.2484 49.9647C17.4305 49.39 17.6809 48.6242 17.9546 47.8576C18.229 47.0889 18.5239 46.3274 18.7948 45.7578C18.931 45.4715 19.0557 45.2453 19.1632 45.0931C19.198 45.0438 19.228 45.0067 19.2528 44.9796C19.2617 44.9903 19.2716 45.0029 19.2825 45.0179C19.3605 45.1256 19.45 45.2982 19.546 45.5309C19.7362 45.9921 19.9252 46.6226 20.0938 47.2677C20.2616 47.91 20.4062 48.5554 20.509 49.041C20.5604 49.2836 20.6012 49.4859 20.6291 49.6273C20.6431 49.698 20.6539 49.7535 20.6611 49.7912C20.6647 49.81 20.6674 49.8245 20.6693 49.8341C20.6702 49.8389 20.6709 49.8425 20.6714 49.8449C20.6716 49.8461 20.6717 49.847 20.6718 49.8476C20.6719 49.8478 20.6719 49.8481 20.6719 49.8482L20.672 49.8483L20.9757 49.7915C21.2795 49.7346 21.2795 49.7345 21.2795 49.7345L21.2794 49.7343C21.2794 49.7341 21.2794 49.7338 21.2793 49.7335C21.2792 49.7328 21.279 49.7318 21.2787 49.7305C21.2782 49.7279 21.2775 49.724 21.2765 49.719C21.2746 49.7088 21.2718 49.6939 21.268 49.6746C21.2606 49.6359 21.2496 49.5793 21.2354 49.5074C21.207 49.3637 21.1657 49.1587 21.1137 48.9129C21.0097 48.4219 20.8629 47.7664 20.6917 47.1114C20.5213 46.4592 20.3239 45.796 20.1174 45.2952C20.015 45.0469 19.9036 44.8214 19.7828 44.6549C19.7225 44.5717 19.6504 44.49 19.5645 44.4284C19.4826 44.3697 19.3727 44.3191 19.2425 44.3219L19.2162 44.3232C19.0717 44.3344 18.9582 44.4116 18.8823 44.478C18.8016 44.5486 18.7269 44.6393 18.6584 44.7363C18.5208 44.9312 18.3783 45.1944 18.2367 45.4921C17.9522 46.0905 17.6489 46.8754 17.3725 47.6496C17.0955 48.4257 16.8427 49.1991 16.6592 49.7778C16.5675 50.0674 16.493 50.3085 16.4414 50.4775C16.4156 50.5619 16.3954 50.6283 16.3818 50.6737C16.375 50.6964 16.3698 50.7139 16.3662 50.7257C16.3645 50.7316 16.3631 50.7361 16.3622 50.7391C16.3618 50.7406 16.3614 50.7418 16.3612 50.7426C16.3611 50.743 16.361 50.7433 16.3609 50.7435L16.3609 50.7438C16.361 50.7439 16.3682 50.746 16.6571 50.8318C16.9533 50.9198 16.9534 50.9198 16.9534 50.9198L16.9534 50.9196ZM20.672 49.8483C20.7034 50.0161 20.8648 50.1267 21.0326 50.0953C21.2003 50.0639 21.3109 49.9024 21.2795 49.7346L20.9757 49.7915L20.672 49.8483ZM16.5691 51.1282C16.7327 51.1768 16.9047 51.0835 16.9533 50.9199L16.3609 50.7438C16.3123 50.9074 16.4055 51.0796 16.5691 51.1282Z" fill="currentColor"/>
<path d="M16.0809 48.2151C16.211 48.2184 16.3132 48.1463 16.3605 48.1103C16.4218 48.0637 16.4837 48.0025 16.5434 47.9367C16.664 47.8038 16.8042 47.6204 16.9532 47.41C17.2528 46.987 17.6081 46.4262 17.9468 45.8701C18.2862 45.3129 18.6117 44.7559 18.8522 44.3384C18.9725 44.1296 19.0717 43.9556 19.1408 43.8337C19.1754 43.7727 19.2024 43.7247 19.2208 43.692C19.23 43.6756 19.2371 43.663 19.2419 43.6545C19.2443 43.6503 19.2461 43.647 19.2473 43.6448C19.2479 43.6438 19.2484 43.643 19.2487 43.6424C19.2489 43.6421 19.249 43.6419 19.2491 43.6417L19.2492 43.6416C19.2491 43.6414 19.2436 43.6384 19.0064 43.5055L19.2492 43.6415C19.3243 43.5073 19.2764 43.3376 19.1423 43.2625C19.0124 43.1898 18.8492 43.2324 18.7709 43.3571L18.7635 43.3694L18.7634 43.3696C18.7634 43.3697 18.7632 43.3699 18.7631 43.3702C18.7628 43.3707 18.7624 43.3715 18.7618 43.3725C18.7606 43.3746 18.7589 43.3778 18.7565 43.3819C18.7519 43.3902 18.7449 43.4026 18.7358 43.4187C18.7176 43.451 18.6908 43.4985 18.6566 43.559C18.588 43.68 18.4895 43.8529 18.37 44.0604C18.1307 44.4755 17.8077 45.0284 17.4714 45.5804C17.1346 46.1335 16.7873 46.6811 16.4991 47.088C16.3543 47.2925 16.2294 47.4544 16.1314 47.5623C16.1057 47.5906 16.0837 47.613 16.0654 47.6306C16.0546 47.6204 16.0415 47.6067 16.0263 47.5884C15.9617 47.5108 15.8895 47.3869 15.8139 47.217C15.6639 46.8797 15.5265 46.4204 15.4094 45.9476C15.293 45.4777 15.1997 45.007 15.1354 44.6528C15.1033 44.4759 15.0786 44.3287 15.0619 44.2259C15.0535 44.1745 15.0471 44.1343 15.0429 44.107C15.0408 44.0933 15.0392 44.0829 15.0381 44.076C15.0376 44.0726 15.0372 44.0699 15.037 44.0683C15.0368 44.0674 15.0368 44.0668 15.0367 44.0664C15.0367 44.0662 15.0366 44.066 15.0366 44.066C15.014 43.9139 14.8725 43.8088 14.7205 43.8314C14.5684 43.854 14.4635 43.9956 14.486 44.1477L14.7613 44.1069C14.486 44.1478 14.486 44.1478 14.486 44.1478V44.148C14.4861 44.1482 14.4861 44.1484 14.4862 44.1486C14.4862 44.1492 14.4864 44.1499 14.4865 44.1509C14.4868 44.1529 14.4872 44.1558 14.4878 44.1595C14.4889 44.167 14.4906 44.1781 14.4928 44.1923C14.4973 44.2209 14.5038 44.2625 14.5124 44.3153C14.5296 44.421 14.555 44.5716 14.5878 44.7523C14.6533 45.1132 14.749 45.5963 14.8691 46.0815C14.9885 46.5637 15.1352 47.0607 15.3053 47.4433C15.3898 47.6334 15.4866 47.8103 15.5986 47.9448C15.7056 48.0733 15.8659 48.2096 16.0809 48.2151Z" fill="currentColor"/>
<path d="M11.7556 43.7218L11.7555 43.722C11.7554 43.7224 11.7552 43.7231 11.7548 43.7241C11.7542 43.7262 11.7531 43.7297 11.7515 43.7344C11.7485 43.7438 11.7437 43.7582 11.7373 43.7768C11.7245 43.814 11.7052 43.8675 11.6801 43.931C11.6293 44.0594 11.5572 44.2214 11.4691 44.3693C11.3773 44.5232 11.2854 44.6321 11.2058 44.6853C11.1697 44.7095 11.146 44.7154 11.1332 44.7166C11.1233 44.7174 11.1047 44.7173 11.0715 44.699C11.0114 44.6659 10.9131 44.5459 10.8126 44.2794C10.7193 44.032 10.6475 43.7227 10.5939 43.4114C10.5406 43.1025 10.5071 42.8028 10.4869 42.5796C10.4768 42.4683 10.4701 42.3766 10.4659 42.3131C10.4638 42.2814 10.4624 42.2567 10.4615 42.2402C10.461 42.232 10.4607 42.2257 10.4605 42.2216C10.4604 42.2196 10.4603 42.2181 10.4602 42.2172C10.4602 42.2168 10.4602 42.2164 10.4602 42.2163L10.4602 42.2162C10.4522 42.0456 10.3076 41.9138 10.1371 41.9217C9.96665 41.9297 9.83491 42.0744 9.84284 42.2449L10.1515 42.2305C9.85474 42.2443 9.84328 42.2449 9.84284 42.245V42.2456C9.84286 42.246 9.84292 42.2466 9.84295 42.2473C9.84302 42.2486 9.84311 42.2506 9.84323 42.2531C9.84349 42.258 9.84385 42.2652 9.84437 42.2745C9.84539 42.2929 9.84695 42.3197 9.84918 42.3536C9.85363 42.4215 9.8607 42.5183 9.8713 42.6354C9.89245 42.869 9.92786 43.1861 9.98481 43.5165C10.0414 43.8446 10.1211 44.1975 10.2343 44.4977C10.3403 44.7789 10.5034 45.0921 10.7737 45.2408C10.9056 45.3133 11.0462 45.3451 11.1883 45.3324C11.3275 45.3199 11.4488 45.2666 11.5493 45.1994C11.7215 45.0842 11.8583 44.9112 11.9622 44.7473C12.104 45.1156 12.3506 45.5489 12.781 45.7808C13.0487 45.9249 13.3131 45.9323 13.5452 45.8245C13.6972 45.7538 13.8168 45.6423 13.9092 45.5268C14.0595 45.8516 14.314 46.2089 14.7436 46.4671C14.8899 46.5551 15.0798 46.5077 15.1677 46.3614C15.2556 46.215 15.2083 46.0251 15.062 45.9372C14.6969 45.7177 14.507 45.3939 14.4072 45.1128C14.3574 44.9725 14.3315 44.8463 14.3182 44.7561C14.3116 44.7113 14.3082 44.676 14.3065 44.6532C14.3056 44.6418 14.3051 44.6334 14.3049 44.6287C14.3048 44.6264 14.3048 44.6249 14.3048 44.6244V44.6251L14.3042 44.611C14.2946 44.4619 14.1792 44.34 14.0294 44.3237C13.8749 44.3068 13.732 44.4073 13.6955 44.5583C13.6955 44.5583 13.6954 44.5585 13.6953 44.5587L13.6953 44.559C13.6952 44.5591 13.6952 44.5593 13.6951 44.5595C13.6948 44.5609 13.6942 44.5634 13.6933 44.5669C13.6914 44.574 13.6884 44.5852 13.6841 44.5998C13.6757 44.6291 13.6626 44.6715 13.6447 44.7217C13.6082 44.824 13.555 44.9487 13.4859 45.0573C13.4141 45.1702 13.3437 45.2364 13.2848 45.2637C13.2454 45.282 13.1862 45.2969 13.074 45.2364C12.8017 45.0897 12.6151 44.7627 12.4974 44.4095C12.4412 44.2407 12.4061 44.0822 12.3851 43.9656C12.3747 43.9076 12.3679 43.8607 12.3638 43.8291C12.3617 43.8133 12.3604 43.8014 12.3596 43.7938C12.3591 43.7901 12.3589 43.7873 12.3587 43.7858L12.3586 43.785L12.3586 43.7849C12.3453 43.6379 12.2297 43.5207 12.0829 43.5054C11.9362 43.4901 11.7991 43.5807 11.7556 43.7218Z" fill="currentColor"/>
<path d="M16.8972 50.8307C17.0677 50.8233 17.2 50.6791 17.1926 50.5085C17.1631 49.8276 17.058 49.3435 16.8967 49.006C16.7314 48.6601 16.4999 48.4563 16.2316 48.3771C15.9755 48.3016 15.7386 48.3556 15.5836 48.4137C15.5038 48.4436 15.4381 48.4773 15.3918 48.5039C15.3685 48.5172 15.3495 48.5291 15.3356 48.5382C15.3286 48.5427 15.3229 48.5466 15.3184 48.5497C15.3162 48.5512 15.3143 48.5526 15.3127 48.5537C15.3119 48.5542 15.3112 48.5547 15.3106 48.5551C15.3103 48.5554 15.31 48.5556 15.3097 48.5558C15.3096 48.5559 15.3093 48.556 15.3093 48.556C15.3092 48.5562 15.309 48.5564 15.4902 48.8068L15.309 48.5563C15.2996 48.5631 15.2906 48.5704 15.282 48.5782L14.8773 48.9473C14.8632 48.8089 14.8449 48.6576 14.8207 48.5036C14.7767 48.2237 14.7117 47.9207 14.6135 47.6657C14.5643 47.5381 14.5029 47.412 14.4243 47.3042C14.3511 47.2039 14.2524 47.1052 14.1211 47.0455L14.0944 47.0341C13.812 46.9211 13.5434 47.0249 13.3533 47.148C13.1837 47.2578 13.0286 47.4121 12.8981 47.5644C12.896 47.5486 12.8937 47.5327 12.8914 47.5169C12.8542 47.2669 12.7862 46.9855 12.6539 46.7584C12.5165 46.5226 12.2845 46.3103 11.9339 46.3103C11.6495 46.3103 11.3887 46.421 11.1714 46.5591C10.9525 46.6982 10.7568 46.8785 10.5964 47.05C10.4349 47.2225 10.3021 47.3938 10.2099 47.5212C10.1636 47.5852 10.127 47.6389 10.1018 47.6771C10.0891 47.6962 10.0793 47.7114 10.0724 47.7222C10.0689 47.7276 10.0662 47.7319 10.0643 47.735C10.0633 47.7366 10.0625 47.7378 10.0619 47.7388C10.0616 47.7392 10.0614 47.7396 10.0612 47.74C10.0611 47.7401 10.061 47.7402 10.061 47.7404L10.0608 47.7405C10.0609 47.7407 10.0665 47.7442 10.3237 47.903L10.0608 47.7406C9.97114 47.8859 10.0162 48.0764 10.1615 48.1661C10.3067 48.2557 10.497 48.2107 10.5867 48.0654C10.5869 48.0652 10.5873 48.0646 10.5878 48.0637C10.5889 48.0619 10.5908 48.059 10.5933 48.055C10.5984 48.047 10.6064 48.0347 10.617 48.0187C10.6382 47.9867 10.6699 47.94 10.7106 47.8837C10.7925 47.7705 10.9088 47.6208 11.0476 47.4725C11.1874 47.3231 11.3432 47.1824 11.5028 47.0809C11.6642 46.9784 11.8092 46.9286 11.9339 46.9286C11.9924 46.9286 12.0513 46.9521 12.12 47.0699C12.1937 47.1964 12.2471 47.3864 12.2801 47.6079C12.3122 47.8239 12.3214 48.0436 12.3221 48.212C12.3224 48.2955 12.3207 48.3649 12.3189 48.4129C12.318 48.4368 12.3171 48.4554 12.3165 48.4676C12.3161 48.4737 12.3159 48.4783 12.3157 48.4811C12.3157 48.4825 12.3155 48.4836 12.3155 48.4841V48.4844L12.3149 48.4979C12.3115 48.6375 12.4024 48.7629 12.5375 48.8022C12.6769 48.8428 12.8258 48.7808 12.8952 48.6532C12.8952 48.6532 12.8953 48.6531 12.8954 48.653C12.8956 48.6526 12.896 48.6518 12.8966 48.6507C12.8977 48.6487 12.8996 48.6453 12.9021 48.6408C12.9072 48.6317 12.9151 48.6179 12.9254 48.6001C12.946 48.5645 12.9765 48.5133 13.0149 48.4523C13.0923 48.3294 13.1996 48.1707 13.3218 48.0212C13.4467 47.8684 13.5741 47.7415 13.6892 47.667C13.808 47.59 13.855 47.6042 13.8649 47.6082C13.8663 47.6088 13.8887 47.6189 13.9251 47.6687C13.961 47.7179 13.9992 47.7905 14.0368 47.8881C14.1121 48.0836 14.1689 48.3373 14.2101 48.5996C14.2509 48.8591 14.2745 49.1135 14.2878 49.304C14.2944 49.399 14.2985 49.4773 14.3008 49.5316C14.302 49.5587 14.3028 49.5798 14.3033 49.5939C14.3035 49.6009 14.3036 49.6061 14.3037 49.6096C14.3038 49.6113 14.3038 49.6125 14.3038 49.6133V49.6141C14.3067 49.7352 14.38 49.8434 14.4913 49.891C14.6026 49.9386 14.7315 49.9168 14.821 49.8352L15.6802 49.0518C15.6851 49.0488 15.6913 49.0447 15.699 49.0403C15.7232 49.0265 15.7583 49.0084 15.8003 48.9927C15.8887 48.9596 15.9788 48.9471 16.0568 48.9701C16.1226 48.9895 16.2324 49.0494 16.3391 49.2727C16.4498 49.5045 16.5474 49.8952 16.5751 50.5352C16.5825 50.7058 16.7267 50.8381 16.8972 50.8307Z" fill="currentColor"/>
<path d="M39.6781 45.6985C39.7883 45.8288 39.9833 45.845 40.1136 45.7347C40.2438 45.6244 40.2601 45.4295 40.1499 45.2991L40.15 45.2992C40.15 45.2992 40.1497 45.2989 40.1494 45.2985C40.1488 45.2978 40.1478 45.2965 40.1463 45.2947C40.1433 45.2911 40.1386 45.2854 40.1323 45.2776C40.1197 45.262 40.1007 45.2383 40.0767 45.2071C40.0286 45.1447 39.9606 45.0531 39.8827 44.9383C39.7261 44.7076 39.5331 44.3889 39.3811 44.0307C39.0693 43.296 38.9715 42.5083 39.515 41.9173C39.6306 41.7917 39.6224 41.5961 39.4968 41.4805C39.3712 41.3649 39.1757 41.373 39.0601 41.4987C38.2593 42.3694 38.4747 43.4771 38.8122 44.2723C38.9848 44.679 39.2005 45.0339 39.3714 45.2857C39.4572 45.4121 39.5327 45.5138 39.5871 45.5845C39.6144 45.6199 39.6365 45.6476 39.652 45.6669C39.6598 45.6765 39.666 45.684 39.6704 45.6893C39.6726 45.6919 39.6744 45.694 39.6756 45.6956C39.6763 45.6963 39.6768 45.6969 39.6772 45.6974C39.6774 45.6977 39.6776 45.6979 39.6777 45.6981L39.678 45.6983C39.6784 45.698 39.6876 45.6904 39.9012 45.5096L39.6781 45.6985Z" fill="currentColor"/>
<path d="M27.9517 43.4877L27.9518 43.4879L27.9518 43.4879C27.9001 43.3595 27.7694 43.2811 27.6318 43.296C27.4942 43.311 27.3833 43.4156 27.3604 43.5522C27.3604 43.5524 27.3603 43.5527 27.3602 43.5532C27.3601 43.5543 27.3597 43.556 27.3593 43.5583C27.3585 43.5629 27.3573 43.5701 27.3555 43.5796C27.3521 43.5987 27.3467 43.6273 27.3395 43.6636C27.325 43.7365 27.3029 43.8404 27.2731 43.9632C27.213 44.2107 27.1232 44.5269 27.0027 44.8177C26.8782 45.1181 26.7379 45.349 26.5968 45.4668C26.5315 45.5213 26.4795 45.5403 26.4382 45.544C26.399 45.5474 26.3368 45.54 26.2434 45.481C25.7245 45.1532 25.3243 44.7426 25.0528 44.4109C24.9176 44.2457 24.8157 44.1017 24.7482 44.0001C24.7145 43.9494 24.6895 43.9094 24.6733 43.8828C24.6652 43.8694 24.6593 43.8595 24.6557 43.8532C24.6538 43.8501 24.6526 43.8478 24.6519 43.8466C24.6515 43.846 24.6513 43.8456 24.6512 43.8455L24.6513 43.8456L24.6514 43.8457L24.6513 43.8457C24.5948 43.7451 24.487 43.6844 24.3717 43.6882C24.2564 43.692 24.1528 43.7598 24.1031 43.864L24.1031 43.8641C24.103 43.8643 24.1028 43.8646 24.1026 43.8651C24.1021 43.866 24.1014 43.8676 24.1004 43.8696C24.0984 43.8737 24.0953 43.8801 24.0912 43.8885C24.083 43.9052 24.0707 43.9302 24.0546 43.9621C24.0223 44.0258 23.9752 44.117 23.9162 44.2253C23.7978 44.4429 23.6339 44.7257 23.4489 44.9938C23.2607 45.2665 23.0642 45.5039 22.8841 45.647C22.6905 45.8008 22.6181 45.7718 22.6011 45.7626C22.4611 45.6872 22.2899 45.5334 22.1033 45.318C21.921 45.1076 21.7415 44.859 21.5816 44.6174C21.4223 44.3767 21.2857 44.1477 21.1887 43.9786C21.1403 43.8942 21.102 43.8251 21.076 43.7774C21.063 43.7535 21.0531 43.735 21.0465 43.7227C21.0432 43.7165 21.0407 43.7119 21.0391 43.7089C21.0383 43.7074 21.0377 43.7063 21.0374 43.7056C21.0372 43.7052 21.037 43.705 21.037 43.7048C20.9577 43.5536 20.7709 43.4953 20.6198 43.5745C20.4686 43.6538 20.4103 43.8407 20.4896 43.9919L20.754 43.8532C20.4896 43.9919 20.4896 43.992 20.4896 43.992L20.4897 43.9921C20.4897 43.9921 20.4898 43.9924 20.4899 43.9925C20.4901 43.9928 20.4903 43.9932 20.4905 43.9937C20.4911 43.9947 20.4919 43.9962 20.4928 43.9981C20.4948 44.0018 20.4977 44.0072 20.5014 44.0141C20.5088 44.028 20.5196 44.0481 20.5335 44.0736C20.5614 44.1247 20.6018 44.1976 20.6526 44.2862C20.7541 44.4632 20.8977 44.704 21.0663 44.9587C21.2343 45.2126 21.4301 45.485 21.6362 45.7229C21.838 45.9559 22.0682 46.1777 22.3081 46.307C22.6709 46.5024 23.0294 46.321 23.2684 46.1312C23.5209 45.9306 23.7588 45.633 23.9575 45.3451C24.1369 45.0852 24.2954 44.8167 24.4157 44.5998C24.4631 44.6631 24.5161 44.7311 24.5746 44.8026C24.8736 45.168 25.3218 45.63 25.9134 46.0038L25.9481 46.0249C26.1221 46.1271 26.3056 46.1764 26.4925 46.1599C26.6899 46.1425 26.8572 46.0547 26.9928 45.9416C27.2533 45.7241 27.4403 45.3764 27.5737 45.0544C27.6581 44.8506 27.7278 44.6397 27.7839 44.4464C27.8189 44.4973 27.8562 44.5493 27.896 44.602C28.2399 45.058 28.7849 45.5921 29.5554 45.7975C30.0087 45.9183 30.379 45.7807 30.6485 45.5108C30.8993 45.2596 31.0548 44.9042 31.1549 44.5773C31.1797 44.496 31.2018 44.4143 31.2214 44.3336C31.4978 44.6703 31.9322 44.99 32.6055 45.1646L32.6249 45.169C32.6707 45.1778 32.7179 45.176 32.763 45.1639L32.683 44.8654C32.763 45.1639 32.7633 45.1639 32.7634 45.1639C32.7634 45.1639 32.7637 45.1638 32.7638 45.1638C32.7641 45.1637 32.7644 45.1636 32.7647 45.1635C32.7653 45.1633 32.766 45.1631 32.7668 45.1629C32.7684 45.1625 32.7703 45.1619 32.7726 45.1613C32.777 45.16 32.7827 45.1583 32.7896 45.1562C32.8035 45.1519 32.8221 45.1458 32.8448 45.1376C32.8903 45.1213 32.9526 45.0966 33.0266 45.0613C33.1743 44.9908 33.3707 44.8771 33.5731 44.7016C33.8581 44.4544 34.1476 44.0904 34.3313 43.5693C34.5946 43.8783 35.0018 44.22 35.6122 44.4527C36.0255 44.6102 36.3876 44.5255 36.668 44.3005C36.9268 44.0927 37.1008 43.7793 37.219 43.4908C37.2598 43.3912 37.2956 43.2904 37.327 43.1918C37.6205 43.5718 38.1108 43.9272 38.8948 43.9629C39.0653 43.9706 39.2099 43.8386 39.2176 43.668C39.2253 43.4975 39.0934 43.353 38.9229 43.3452C38.2922 43.3166 37.9548 43.0225 37.7655 42.7441C37.6675 42.6001 37.6073 42.4564 37.5717 42.3484C37.5541 42.2948 37.5429 42.2512 37.5364 42.2224C37.5331 42.208 37.531 42.1974 37.5299 42.1912C37.5293 42.1882 37.529 42.1862 37.5289 42.1854L37.5288 42.1852C37.5288 42.1852 37.5289 42.1855 37.5289 42.1858C37.529 42.1859 37.529 42.186 37.529 42.1862L37.5266 42.1725C37.4978 42.0264 37.3683 41.9207 37.2181 41.9233C37.0631 41.926 36.934 42.0432 36.9164 42.1974C36.9164 42.1974 36.9164 42.1976 36.9164 42.1978C36.9163 42.1985 36.9161 42.1998 36.9159 42.2016C36.9155 42.2052 36.9147 42.211 36.9137 42.2188C36.9116 42.2343 36.9084 42.2578 36.9038 42.2879C36.8946 42.3482 36.88 42.4348 36.8588 42.5376C36.8161 42.745 36.7481 43.0099 36.6472 43.2562C36.5436 43.509 36.4189 43.7076 36.2812 43.8182C36.1651 43.9114 36.0327 43.9512 35.8323 43.8748C35.278 43.6636 34.9405 43.3497 34.7423 43.0951C34.6426 42.9671 34.5774 42.8533 34.5381 42.774C34.5185 42.7344 34.5054 42.7036 34.4976 42.6842C34.4938 42.6746 34.4913 42.6678 34.49 42.6642C34.4894 42.6624 34.489 42.6614 34.489 42.6612C34.489 42.6612 34.489 42.6615 34.4891 42.6617L34.4853 42.6505C34.4367 42.5186 34.3046 42.4354 34.1637 42.4499C34.0182 42.4649 33.9031 42.5798 33.8879 42.7253C33.8053 43.5171 33.4686 43.9739 33.1682 44.2344C33.0153 44.3671 32.8679 44.452 32.7606 44.5032C32.7267 44.5194 32.6969 44.532 32.6726 44.5417C32.0267 44.3524 31.7122 44.0099 31.5531 43.729C31.4676 43.5781 31.4234 43.4383 31.4007 43.338C31.3893 43.288 31.3836 43.2485 31.3806 43.2233C31.3792 43.2107 31.3784 43.2017 31.3781 43.1969C31.3779 43.1946 31.3779 43.1932 31.3779 43.1929V43.1942C31.3779 43.1944 31.3779 43.1946 31.3779 43.1948V43.1951L31.3779 43.1952C31.3729 43.0282 31.2363 42.8953 31.0693 42.8951C30.9074 42.895 30.7738 43.0196 30.761 43.1793L30.7601 43.1949C30.7601 43.195 30.7601 43.1953 30.7601 43.1956C30.7601 43.1964 30.76 43.1979 30.7599 43.1999C30.7598 43.204 30.7595 43.2106 30.7591 43.2193C30.7583 43.2368 30.7569 43.2631 30.7546 43.2968C30.75 43.3644 30.742 43.4615 30.7283 43.5772C30.7008 43.8105 30.6512 44.1111 30.5639 44.3962C30.4746 44.6879 30.3561 44.9288 30.2112 45.0739C30.0849 45.2004 29.9378 45.2595 29.7145 45.2C29.1321 45.0447 28.6922 44.6311 28.3894 44.2296C28.2398 44.0313 28.129 43.8429 28.0559 43.7044C28.0194 43.6354 27.9926 43.5793 27.9753 43.5414C27.9667 43.5225 27.9604 43.5081 27.9565 43.499C27.9546 43.4945 27.9532 43.4912 27.9524 43.4893C27.9521 43.4885 27.9518 43.488 27.9517 43.4877ZM34.4893 42.6624C34.4894 42.6625 34.4894 42.6627 34.4895 42.6628L34.4896 42.6631L34.4896 42.6632L34.4893 42.6624Z" fill="currentColor"/>
<path d="M25.3414 50.4429C25.4614 50.4314 25.5638 50.351 25.6036 50.2371L25.6035 50.2371L25.6036 50.237C25.6037 50.2368 25.6038 50.2364 25.604 50.2358C25.6044 50.2348 25.605 50.2331 25.6058 50.2307C25.6075 50.2261 25.61 50.219 25.6134 50.2096C25.6201 50.1908 25.6303 50.1628 25.6436 50.127C25.6703 50.0553 25.7096 49.9522 25.7594 49.8282C25.8594 49.5795 26.0008 49.2493 26.168 48.919C26.3365 48.5862 26.5249 48.2658 26.7164 48.0295C26.812 47.9116 26.9014 47.8234 26.9816 47.7653C27.0525 47.7141 27.104 47.695 27.1376 47.6896L27.151 47.6881C27.2168 47.6837 27.3586 47.7371 27.5729 47.9709C27.7709 48.1868 27.9703 48.4907 28.1514 48.812C28.3308 49.1304 28.4847 49.4524 28.5941 49.696C28.6487 49.8175 28.6919 49.9187 28.7213 49.9892C28.736 50.0244 28.7472 50.052 28.7547 50.0705C28.7584 50.0797 28.7612 50.0868 28.763 50.0913C28.7639 50.0936 28.7646 50.0953 28.765 50.0964C28.7652 50.0969 28.7654 50.0972 28.7655 50.0974L28.7655 50.0977C28.8138 50.2206 28.9349 50.2992 29.0668 50.2934C29.1987 50.2876 29.3123 50.1986 29.3496 50.0718L29.3496 50.0717C29.3497 50.0716 29.3498 50.0712 29.3499 50.0708C29.3502 50.0698 29.3507 50.0682 29.3513 50.066C29.3526 50.0617 29.3547 50.055 29.3574 50.046C29.3629 50.0282 29.3712 50.0014 29.3822 49.9671C29.4043 49.8984 29.4373 49.7995 29.4801 49.6801C29.566 49.4406 29.6905 49.1223 29.8456 48.8025C30.0019 48.4801 30.1832 48.1693 30.3794 47.9366C30.5756 47.7038 30.7498 47.593 30.8916 47.5717L30.9052 47.57C31.0628 47.5524 31.2842 47.6202 31.5612 47.7947C31.8296 47.9637 32.107 48.2054 32.3622 48.4606C32.6157 48.7142 32.8388 48.9728 32.999 49.1686C33.0789 49.2663 33.1427 49.3478 33.1862 49.4046C33.2079 49.4329 33.2246 49.455 33.2356 49.4698C33.2412 49.4773 33.2454 49.4829 33.248 49.4865C33.2494 49.4883 33.2503 49.4896 33.2509 49.4904C33.2512 49.4908 33.2514 49.4911 33.2515 49.4912L33.2516 49.4914C33.3321 49.6017 33.4754 49.646 33.6041 49.6005C33.7329 49.555 33.8165 49.4304 33.8099 49.294L33.8098 49.2931C33.8098 49.2923 33.8097 49.2908 33.8096 49.2889C33.8095 49.2849 33.8092 49.2788 33.8089 49.2706C33.8083 49.2542 33.8075 49.2298 33.8067 49.1982C33.8052 49.1352 33.8038 49.0442 33.8047 48.9342C33.8065 48.7134 33.8172 48.4203 33.852 48.1246C33.8872 47.8249 33.9452 47.5419 34.033 47.3315C34.1201 47.1228 34.2048 47.0577 34.2573 47.0414L34.2674 47.0387L34.2835 47.036C34.3678 47.0252 34.5085 47.0584 34.713 47.1887C34.9202 47.3207 35.14 47.5187 35.3463 47.7342C35.5506 47.9476 35.7318 48.1678 35.8626 48.3357C35.9278 48.4193 35.9799 48.4893 36.0155 48.538C36.0333 48.5623 36.0469 48.5813 36.0559 48.594C36.0604 48.6004 36.0638 48.6051 36.066 48.6082C36.067 48.6097 36.0678 48.6109 36.0683 48.6115C36.0685 48.6118 36.0686 48.6121 36.0687 48.6122C36.154 48.7351 36.3151 48.7791 36.4511 48.7169C36.5871 48.6547 36.659 48.504 36.6219 48.3591L36.6217 48.3583C36.6215 48.3574 36.6211 48.356 36.6206 48.354C36.6196 48.3501 36.6181 48.3439 36.6161 48.3357C36.6121 48.3192 36.6062 48.2944 36.599 48.2624C36.5845 48.1984 36.5645 48.1055 36.5432 47.9922C36.5003 47.7648 36.4526 47.4591 36.4316 47.1406C36.4104 46.8189 36.4175 46.5011 36.4749 46.2426C36.5336 45.9784 36.6317 45.8316 36.7445 45.7659C36.8838 45.6848 37.0904 45.655 37.3618 45.686C37.6285 45.7166 37.9213 45.8019 38.2004 45.9078C38.4777 46.013 38.7304 46.1343 38.9145 46.2298C39.0063 46.2774 39.0802 46.3182 39.1308 46.3469C39.1561 46.3612 39.1755 46.3725 39.1883 46.38C39.1947 46.3837 39.1994 46.3866 39.2024 46.3884C39.2039 46.3892 39.205 46.3899 39.2056 46.3902L39.2062 46.3906C39.3523 46.4789 39.5422 46.4321 39.6305 46.286C39.7188 46.1399 39.672 45.9499 39.526 45.8615L39.3661 46.126C39.526 45.8615 39.5259 45.8614 39.5259 45.8614L39.5257 45.8613C39.5256 45.8612 39.5254 45.8611 39.5253 45.861C39.5249 45.8608 39.5244 45.8605 39.5238 45.8602C39.5226 45.8594 39.5209 45.8584 39.5188 45.8572C39.5146 45.8547 39.5086 45.8511 39.501 45.8466C39.4857 45.8376 39.4635 45.8248 39.4354 45.8089C39.3791 45.777 39.2985 45.7325 39.1992 45.681C39.0011 45.5782 38.7258 45.4458 38.4196 45.3297C38.1154 45.2142 37.7693 45.1104 37.4321 45.0718C37.0997 45.0337 36.7375 45.0545 36.4335 45.2316C36.103 45.4241 35.946 45.7736 35.8716 46.1085C35.796 46.4491 35.7919 46.8333 35.8149 47.1813C35.8185 47.236 35.8229 47.2902 35.8278 47.3437C35.8161 47.3313 35.8044 47.3189 35.7926 47.3065C35.5712 47.0752 35.3121 46.8374 35.0451 46.6672C34.789 46.504 34.465 46.364 34.1378 46.4342C33.78 46.5109 33.5779 46.8172 33.4626 47.0933C33.3422 47.3817 33.276 47.7309 33.2381 48.0524C33.222 48.1898 33.2108 48.3257 33.2029 48.4544C33.082 48.3175 32.9457 48.17 32.7992 48.0234C32.5283 47.7524 32.2139 47.4752 31.8905 47.2715C31.5758 47.0732 31.2054 46.9145 30.8369 46.9554C30.4551 46.9979 30.1438 47.257 29.9069 47.538C29.6636 47.8266 29.4562 48.189 29.2896 48.5325C29.186 48.746 29.0958 48.9573 29.0206 49.1472C28.9261 48.95 28.8142 48.7291 28.6898 48.5083C28.4997 48.1711 28.2733 47.82 28.0285 47.553C27.8002 47.3039 27.4824 47.0463 27.1099 47.0711C26.9233 47.0836 26.7578 47.1642 26.6195 47.2643C26.4804 47.3649 26.3523 47.4971 26.2364 47.6402C26.0047 47.926 25.7932 48.2909 25.6166 48.6397C25.4689 48.9315 25.3413 49.221 25.2426 49.459C25.1288 49.2943 24.9901 49.1034 24.8329 48.9075C24.6114 48.6312 24.3488 48.3387 24.0642 48.0939C23.7832 47.852 23.4604 47.6386 23.1178 47.5484C22.7327 47.447 22.3957 47.5548 22.1286 47.7487C21.8708 47.9358 21.6712 48.2062 21.5222 48.4616C21.3711 48.7204 21.2597 48.9855 21.1865 49.1833C21.1496 49.2829 21.1218 49.3669 21.1031 49.4267C21.0937 49.4566 21.0866 49.4806 21.0817 49.4974C21.0793 49.5058 21.0774 49.5125 21.0761 49.5173C21.0754 49.5197 21.0749 49.5216 21.0745 49.523C21.0743 49.5237 21.0741 49.5243 21.074 49.5247C21.0739 49.525 21.0738 49.5252 21.0738 49.5253L21.0737 49.5255C21.0737 49.5255 21.0737 49.5257 21.372 49.6067L21.0737 49.5258C21.029 49.6905 21.1263 49.8604 21.291 49.9051C21.4557 49.9498 21.6254 49.8525 21.6702 49.6878C21.6702 49.6878 21.6702 49.6876 21.6703 49.6874C21.6704 49.6869 21.6707 49.6858 21.6711 49.6844C21.6719 49.6814 21.6733 49.6766 21.6752 49.6701C21.679 49.657 21.6849 49.6371 21.693 49.6115C21.709 49.5602 21.7334 49.4863 21.7661 49.3981C21.8319 49.2203 21.929 48.9908 22.0559 48.7732C22.1849 48.5522 22.3326 48.3645 22.4915 48.2491C22.6411 48.1405 22.7902 48.1015 22.9604 48.1463C23.173 48.2023 23.4119 48.348 23.6611 48.5625C23.9069 48.774 24.143 49.0352 24.3508 49.2944C24.5579 49.5526 24.7322 49.8029 24.8548 49.989C24.916 50.0819 24.9641 50.1583 24.9966 50.211C25.0128 50.2374 25.0252 50.2578 25.0333 50.2714C25.0374 50.2782 25.0404 50.2833 25.0423 50.2866C25.0433 50.2882 25.044 50.2894 25.0444 50.2901C25.0446 50.2905 25.0447 50.2907 25.0448 50.2909C25.1055 50.3951 25.2213 50.4544 25.3414 50.4429Z" fill="currentColor"/>
<path d="M51.0421 50.6285C51.1905 50.7818 51.4351 50.7857 51.5883 50.6373C51.7416 50.4888 51.7455 50.2442 51.5971 50.0909C50.7876 49.2545 50.7568 48.2639 51.1256 47.1796C51.5012 46.0756 52.2675 44.956 52.9472 43.9625L52.9819 43.911C53.7007 42.8236 53.8036 41.4812 53.5795 40.1122C53.3515 38.7194 52.7781 37.2505 52.0973 35.8884C51.4913 34.676 51.682 33.4976 52.0444 32.5946C52.2255 32.1436 52.4466 31.7695 52.6227 31.5083C52.7105 31.3781 52.7864 31.2769 52.8395 31.2094C52.8659 31.1756 52.8867 31.1504 52.9002 31.1341C52.907 31.126 52.912 31.1201 52.915 31.1166C52.9165 31.1149 52.9175 31.1138 52.918 31.1132C52.9182 31.113 52.9183 31.1128 52.9183 31.1128C53.0592 30.9529 53.044 30.709 52.8843 30.5678C52.7244 30.4265 52.4803 30.4416 52.339 30.6015L52.6284 30.8574C52.339 30.6015 52.3389 30.6016 52.3388 30.6018C52.3388 30.6018 52.3386 30.6019 52.3385 30.602C52.3383 30.6023 52.338 30.6026 52.3378 30.6029C52.3372 30.6035 52.3365 30.6043 52.3357 30.6052C52.3341 30.6071 52.3319 30.6095 52.3293 30.6126C52.324 30.6188 52.3167 30.6274 52.3075 30.6384C52.2892 30.6603 52.2635 30.6917 52.2319 30.7319C52.1687 30.8124 52.0816 30.9287 51.9822 31.0762C51.7839 31.3704 51.5337 31.793 51.3275 32.3067C50.9155 33.3332 50.6679 34.7568 51.4063 36.234C52.0697 37.5615 52.6067 38.9519 52.8171 40.2371C53.0278 41.5243 52.9038 42.6577 52.3097 43.526C51.6452 44.4971 50.8104 45.7071 50.3942 46.9306C49.9713 48.1739 49.9582 49.5087 51.0421 50.6285Z" fill="currentColor"/>
<path d="M50.785 26.3228C51.1806 26.1629 51.6309 26.3541 51.7907 26.7499C51.9506 27.1456 51.7594 27.5961 51.3639 27.756C50.9683 27.9159 50.518 27.7247 50.3582 27.329C50.1983 26.9332 50.3894 26.4828 50.785 26.3228Z" fill="currentColor"/>
<path d="M49.8214 24.2811C50.2171 24.1212 50.6673 24.3124 50.8272 24.7081C50.987 25.1039 50.7959 25.5543 50.4003 25.7142C50.0047 25.8742 49.5544 25.6829 49.3946 25.2872C49.2348 24.8915 49.4258 24.441 49.8214 24.2811Z" fill="currentColor"/>
<path d="M47.9379 25.8066C48.3335 25.6467 48.7838 25.8379 48.9436 26.2336C49.1035 26.6294 48.9123 27.0798 48.5168 27.2397C48.1211 27.3996 47.6709 27.2084 47.511 26.8127C47.3512 26.4169 47.5423 25.9665 47.9379 25.8066Z" fill="currentColor"/>
<path d="M53.6922 21.557C53.8414 21.5499 53.9566 21.4232 53.9495 21.274L53.6794 21.2868C53.9495 21.274 53.9495 21.2739 53.9495 21.2739C53.9495 21.2739 53.9495 21.2737 53.9495 21.2736C53.9495 21.2733 53.9495 21.273 53.9494 21.2725C53.9494 21.2716 53.9493 21.2703 53.9493 21.2686C53.9491 21.2652 53.9489 21.2602 53.9485 21.2537C53.9479 21.2406 53.9469 21.2213 53.9455 21.1964C53.9427 21.1464 53.9385 21.0733 53.9325 20.9805C53.9205 20.7949 53.9015 20.5301 53.8737 20.2121C53.818 19.5768 53.7264 18.7266 53.5828 17.8716C53.4398 17.0201 53.2427 16.1485 52.9715 15.4778C52.8362 15.1432 52.6762 14.8429 52.4837 14.6187C52.2906 14.3937 52.044 14.2225 51.7399 14.2049C51.4318 14.1871 51.1654 14.3369 50.9482 14.5451C50.731 14.7533 50.5368 15.0437 50.3625 15.3727C50.0131 16.0324 49.7126 16.9086 49.4679 17.7715C49.2222 18.6378 49.0287 19.5054 48.8968 20.1553C48.8307 20.4805 48.78 20.7519 48.7457 20.9422C48.7285 21.0374 48.7155 21.1123 48.7067 21.1636C48.7023 21.1892 48.699 21.209 48.6968 21.2224C48.6957 21.2291 48.6948 21.2343 48.6943 21.2377C48.694 21.2395 48.6937 21.2408 48.6936 21.2417C48.6935 21.2422 48.6934 21.2425 48.6934 21.2428C48.6934 21.2429 48.6933 21.2431 48.6933 21.2431C48.6933 21.2431 48.6933 21.2432 48.9602 21.2868L48.6933 21.2432C48.6693 21.3907 48.7693 21.5297 48.9167 21.5537C49.0641 21.5778 49.203 21.4777 49.2271 21.3303L49.2271 21.3301C49.2271 21.33 49.2272 21.3297 49.2272 21.3293C49.2273 21.3285 49.2275 21.3274 49.2278 21.3258C49.2283 21.3227 49.2291 21.3179 49.2302 21.3115C49.2323 21.2988 49.2355 21.2798 49.2398 21.2548C49.2483 21.205 49.2611 21.1316 49.2779 21.0382C49.3116 20.8511 49.3616 20.5837 49.4267 20.2629C49.5571 19.6208 49.7476 18.7676 49.9882 17.9191C50.2298 17.0673 50.5179 16.2346 50.8403 15.626C51.002 15.3208 51.1644 15.0872 51.3223 14.9358C51.4802 14.7844 51.6073 14.7391 51.7087 14.745C51.8141 14.7511 51.9356 14.8106 52.0734 14.9711C52.2118 15.1323 52.3454 15.3723 52.4701 15.6808C52.7191 16.2962 52.9084 17.1216 53.0495 17.9612C53.1899 18.7973 53.28 19.6323 53.3349 20.2594C53.3624 20.5726 53.381 20.8333 53.3928 21.0154C53.3986 21.1064 53.4028 21.1778 53.4055 21.2263C53.4068 21.2505 53.4078 21.269 53.4084 21.2813C53.4087 21.2875 53.409 21.2922 53.4091 21.2952C53.4092 21.2967 53.4092 21.2978 53.4093 21.2985C53.4093 21.2989 53.4093 21.2992 53.4093 21.2993V21.2995C53.4164 21.4487 53.543 21.564 53.6922 21.557Z" fill="currentColor"/>
<path d="M39.85 35.5632C39.85 35.5632 42.5483 34.546 43.6401 33.1852C43.7198 33.0859 43.8235 33.0089 43.9419 32.9623C44.2594 32.8372 44.8541 32.6972 45.0453 33.2967C45.1786 33.7151 45.0123 34.1707 44.6516 34.4209C43.9922 34.8783 42.5278 35.5945 39.85 35.5632Z" fill="currentColor"/>
<path d="M39.4761 36.9614C39.4761 36.9614 43.267 36.432 45.0778 34.9886C45.2098 34.8833 45.3667 34.8139 45.5336 34.7881C45.9812 34.7187 46.7921 34.711 46.8647 35.5432C46.9154 36.1239 46.5672 36.6654 46.0271 36.884C45.0397 37.2837 42.9346 37.7836 39.4761 36.9614Z" fill="currentColor"/>
<path d="M19.6258 41.7726C19.5715 42.1361 19.233 42.3866 18.8696 42.3323C18.5064 42.278 18.2558 41.9393 18.3101 41.5759C18.3644 41.2124 18.703 40.9619 19.0663 41.0161C19.4297 41.0705 19.6801 41.4091 19.6258 41.7726Z" fill="currentColor"/>
<path d="M19.7451 40.1085C19.6908 40.472 19.3523 40.7225 18.9889 40.6682C18.6257 40.6139 18.3751 40.2752 18.4294 39.9117C18.4837 39.5483 18.8223 39.2977 19.1856 39.352C19.549 39.4063 19.7994 39.745 19.7451 40.1085Z" fill="currentColor"/>
<path d="M19.7417 38.4001C19.6874 38.7636 19.3489 39.0142 18.9855 38.9598C18.6223 38.9055 18.3717 38.5668 18.426 38.2034C18.4803 37.84 18.8189 37.5893 19.1822 37.6436C19.5456 37.698 19.796 38.0367 19.7417 38.4001Z" fill="currentColor"/>
<path d="M21.0066 38.2335C21.3189 38.2561 21.7524 38.2695 22.2377 38.2321C23.1997 38.1579 24.4068 37.8811 25.2553 37.0355C25.346 36.9452 25.3463 36.7983 25.256 36.7076C25.1656 36.6169 25.0188 36.6166 24.9282 36.707C24.1963 37.4364 23.1242 37.6986 22.2021 37.7697C21.7453 37.8049 21.3355 37.7924 21.0401 37.771C20.8925 37.7603 20.774 37.7475 20.693 37.7374C20.6525 37.7324 20.6214 37.7281 20.6008 37.725C20.5905 37.7235 20.5828 37.7223 20.5779 37.7215C20.5754 37.7211 20.5736 37.7209 20.5726 37.7207C20.572 37.7206 20.5717 37.7205 20.5715 37.7205L20.5597 37.7189C20.4379 37.7048 20.3252 37.7887 20.3047 37.9111C20.2837 38.0374 20.3689 38.1569 20.4952 38.1779L20.5333 37.9492C20.4952 38.1779 20.4954 38.1779 20.4954 38.1779L20.4956 38.178C20.4958 38.178 20.496 38.1781 20.4963 38.1781C20.4968 38.1782 20.4975 38.1783 20.4984 38.1785C20.5002 38.1788 20.5028 38.1791 20.506 38.1796C20.5124 38.1807 20.5217 38.1821 20.5336 38.1838C20.5573 38.1873 20.5918 38.1921 20.6358 38.1976C20.7238 38.2085 20.8503 38.2222 21.0066 38.2335Z" fill="currentColor"/>
<path d="M21.1013 40.3696C21.4136 40.3921 21.8471 40.4055 22.3324 40.3681C23.2944 40.2939 24.5015 40.0172 25.35 39.1715C25.4407 39.0812 25.441 38.9343 25.3507 38.8436C25.2603 38.7529 25.1136 38.7526 25.0229 38.843C24.291 39.5724 23.2189 39.8346 22.2968 39.9057C21.84 39.9409 21.4303 39.9284 21.1348 39.907C20.9872 39.8964 20.8687 39.8835 20.7877 39.8735C20.7472 39.8684 20.7161 39.8641 20.6955 39.8611C20.6852 39.8595 20.6775 39.8583 20.6726 39.8576C20.6701 39.8572 20.6683 39.8569 20.6673 39.8567C20.6667 39.8566 20.6664 39.8566 20.6662 39.8565L20.6544 39.8549C20.5326 39.8409 20.4199 39.9247 20.3995 40.0471C20.3784 40.1734 20.4637 40.2929 20.5899 40.314L20.6281 40.0852C20.5899 40.3139 20.5901 40.314 20.5901 40.314L20.5903 40.314C20.5905 40.3141 20.5907 40.3141 20.591 40.3141C20.5915 40.3142 20.5922 40.3143 20.5931 40.3145C20.5949 40.3148 20.5975 40.3152 20.6007 40.3157C20.6072 40.3167 20.6164 40.3181 20.6283 40.3199C20.6521 40.3233 20.6865 40.3281 20.7305 40.3336C20.8185 40.3446 20.945 40.3582 21.1013 40.3696Z" fill="currentColor"/>
<path d="M21.0163 42.3235C21.3286 42.346 21.7621 42.3594 22.2474 42.322C23.2094 42.2478 24.4165 41.9711 25.265 41.1254C25.3557 41.0351 25.356 40.8882 25.2656 40.7975C25.1753 40.7068 25.0285 40.7065 24.9378 40.7969C24.2059 41.5263 23.1339 41.7885 22.2118 41.8596C21.755 41.8948 21.3452 41.8823 21.0498 41.8609C20.9022 41.8502 20.7837 41.8374 20.7027 41.8274C20.6622 41.8223 20.6311 41.818 20.6105 41.815C20.6002 41.8134 20.5925 41.8122 20.5876 41.8114C20.5851 41.8111 20.5833 41.8108 20.5823 41.8106C20.5817 41.8105 20.5814 41.8105 20.5812 41.8104L20.5694 41.8088C20.4476 41.7948 20.3349 41.8786 20.3144 42.001C20.2934 42.1273 20.3786 42.2468 20.5049 42.2679L20.543 42.0391C20.5049 42.2678 20.5051 42.2679 20.5051 42.2679L20.5053 42.2679C20.5055 42.268 20.5057 42.268 20.506 42.268C20.5065 42.2681 20.5072 42.2682 20.5081 42.2684C20.5099 42.2687 20.5125 42.2691 20.5157 42.2696C20.5221 42.2706 20.5314 42.272 20.5433 42.2738C20.567 42.2772 20.6015 42.282 20.6455 42.2875C20.7335 42.2985 20.86 42.3121 21.0163 42.3235Z" fill="currentColor"/>
<path d="M42.975 57.3698C42.975 57.3698 42.9751 57.3697 42.9753 57.3697C42.9761 57.3692 42.9781 57.3682 42.9813 57.3666C42.9878 57.3633 42.9991 57.3576 43.0152 57.3498C43.0474 57.3342 43.0985 57.3099 43.1677 57.2789C43.3062 57.217 43.5171 57.1283 43.7939 57.0278C44.3478 56.8268 45.1633 56.5793 46.1894 56.4044C48.2394 56.0549 51.1283 55.9947 54.4607 57.1713L54.4919 57.1816C54.565 57.2039 54.6412 57.2154 54.7178 57.2154V56.4425C54.7178 57.2123 54.7182 57.2153 54.7187 57.2154H54.7214C54.7226 57.2154 54.724 57.2153 54.7254 57.2153C54.7282 57.2153 54.7313 57.2152 54.7347 57.2152C54.7414 57.2151 54.7493 57.2148 54.7583 57.2145C54.7761 57.2138 54.7983 57.2127 54.8242 57.2106C54.8758 57.2065 54.944 57.1988 55.0232 57.1839C55.1781 57.155 55.3959 57.0953 55.6198 56.9674C55.849 56.8364 56.0875 56.6313 56.2578 56.3216C56.4283 56.0116 56.5036 55.6453 56.4831 55.2345C56.4831 55.2351 56.483 55.2327 56.4828 55.2267C56.4827 55.2209 56.4826 55.213 56.4826 55.2026C56.4825 55.1817 56.4826 55.1543 56.4832 55.1198C56.4843 55.0508 56.4867 54.9603 56.4904 54.848C56.4979 54.6236 56.5103 54.3228 56.5269 53.9527C56.5601 53.2125 56.6092 52.2081 56.6662 51.0084C56.7801 48.6115 56.925 45.4466 57.0353 42.1087C57.1456 38.7719 57.2215 35.2562 57.1965 32.1582C57.1718 29.0765 57.0474 26.3562 56.744 24.6378C56.6051 23.8516 56.5267 23.0619 56.5235 22.274C56.5182 20.936 56.4104 18.8196 55.8919 16.6831C55.3772 14.5621 54.4319 12.3136 52.6716 10.8315C52.1551 10.3966 51.4048 10.4194 50.9114 10.8596L50.8474 10.9173C49.5598 12.0862 46.124 15.8028 45.4851 22.6008C45.4026 22.5538 45.3163 22.5096 45.2266 22.4694C45.1729 22.1827 45.0938 21.7741 44.991 21.2827C44.7853 20.3001 44.484 18.9798 44.1025 17.6397C43.7231 16.3067 43.2554 14.9213 42.7099 13.8241C42.4376 13.2765 42.1312 12.7702 41.7856 12.3727C41.4475 11.9838 41.0083 11.626 40.4583 11.5159C40.127 11.4496 39.8345 11.5442 39.6203 11.6644C39.4109 11.7818 39.2328 11.9465 39.085 12.1108C38.789 12.4398 38.5043 12.8929 38.2376 13.3875C37.6986 14.3873 37.1447 15.726 36.6508 17.0431C36.1544 18.3671 35.7081 19.6979 35.3865 20.6957C35.2255 21.1951 35.0953 21.6122 35.0053 21.9049C34.9934 21.9436 34.9823 21.98 34.9719 22.0142C34.7846 22.0934 34.5284 22.204 34.2199 22.3429C33.5523 22.6433 32.6367 23.077 31.645 23.6103C29.6976 24.6576 27.3257 26.1566 26.0462 27.8526C23.8595 30.751 20.4032 31.9956 18.5749 32.0479C17.4949 32.0787 15.9489 32.2765 14.4629 32.5783C12.9938 32.8767 11.4861 33.2958 10.5294 33.8043C9.33764 34.4378 8.93152 35.7536 8.78332 36.6777C8.70486 37.167 8.6867 37.619 8.68753 37.9464C8.68795 38.1111 8.6932 38.247 8.6985 38.3436C8.70088 38.3868 8.70335 38.4224 8.70535 38.4492C8.70429 38.4781 8.70289 38.518 8.70173 38.5676C8.69927 38.6725 8.69736 38.8212 8.6993 39.0011C8.70314 39.359 8.7223 39.8494 8.78519 40.3685C8.84736 40.8815 8.95601 41.456 9.15254 41.9671C9.34214 42.4603 9.66013 43.0167 10.2197 43.322L10.4543 43.4511C11.6207 44.0969 12.7096 44.7447 14.5971 45.0987C15.7183 45.309 16.5067 45.0504 16.9953 44.5345C17.1288 44.3935 17.226 44.2468 17.297 44.1109C17.3358 44.1103 17.3783 44.11 17.4248 44.1106C17.8891 44.117 18.725 44.1946 20.1228 44.5085C21.6575 44.8532 23.2606 44.8496 24.4586 44.7667C25.0621 44.7249 25.5729 44.6622 25.9345 44.6097C26.1155 44.5835 26.2596 44.5597 26.3597 44.5422C26.4098 44.5334 26.449 44.5262 26.4763 44.5211C26.4783 44.5207 26.4802 44.5204 26.482 44.52C26.4846 44.5198 26.4874 44.5195 26.4903 44.5192C26.5189 44.5163 26.5611 44.5121 26.6161 44.5064C26.7262 44.4952 26.8873 44.4785 27.0926 44.4566C27.5031 44.4128 28.0903 44.3483 28.7984 44.2653C30.2139 44.0993 32.1159 43.8587 34.0567 43.5609C35.9934 43.2637 37.987 42.9067 39.5785 42.5059C40.1118 42.3715 40.6103 42.2297 41.0521 42.0802C40.8173 42.6402 40.4991 43.2873 40.0752 43.9533C38.8632 45.8575 36.8054 47.8979 33.3577 48.5497C29.6817 49.2446 27.3669 49.3981 25.9912 49.3841C25.3042 49.3771 24.8552 49.3284 24.5906 49.286C24.4586 49.2649 24.373 49.2454 24.327 49.2336C24.3085 49.2241 24.2874 49.2134 24.2637 49.2018C24.177 49.1593 24.0554 49.1036 23.9056 49.0451C23.6088 48.9291 23.1868 48.7961 22.6979 48.7388C21.7473 48.6274 20.5129 48.8081 19.5341 49.9442C19.4733 49.9649 19.3972 49.9893 19.3077 50.0147C19.0436 50.09 18.6726 50.173 18.2473 50.2048C17.3927 50.2686 16.3873 50.1236 15.5449 49.3746L15.5448 49.3746C14.3823 48.3409 13.1062 47.8056 12.1308 47.5279C11.6414 47.3886 11.2219 47.3124 10.9208 47.2709C10.7701 47.25 10.6484 47.2378 10.5617 47.2307C10.5183 47.2271 10.4836 47.2248 10.4584 47.2234C10.4458 47.2227 10.4355 47.2221 10.4277 47.2218C10.4238 47.2216 10.4205 47.2214 10.4178 47.2213C10.4165 47.2213 10.4153 47.2213 10.4143 47.2212C10.4138 47.2212 10.4133 47.2212 10.4128 47.2212C10.4126 47.2212 10.4122 47.2211 10.4122 47.2211C10.4121 47.2211 10.4119 47.222 10.4085 47.3177L10.3851 47.9935C9.61835 48.0885 9.6184 48.089 9.61846 48.0895C9.61848 48.0897 9.61852 48.0902 9.61857 48.0905C9.61867 48.0913 9.61879 48.0922 9.61891 48.0931C9.61916 48.0951 9.61946 48.0974 9.61981 48.1001C9.62053 48.1055 9.62146 48.1123 9.62264 48.1206C9.62502 48.1373 9.62839 48.1597 9.63294 48.1876C9.64205 48.2433 9.65591 48.321 9.67606 48.4182C9.71635 48.6123 9.78199 48.8846 9.88537 49.2143C10.0919 49.8728 10.4509 50.7657 11.0646 51.7219C12.3013 53.649 14.5488 55.7947 18.5531 56.8116C22.4322 57.7966 24.8694 57.8593 26.6647 57.8486C28.4784 57.8378 29.3877 57.7782 30.502 58.3582C31.351 58.8 32.592 58.899 33.8275 58.8705C35.1033 58.8412 36.5294 58.6689 37.8506 58.4569C39.1755 58.2443 40.4139 57.9886 41.3199 57.7864C41.7734 57.6852 42.1447 57.5972 42.4034 57.5343C42.5327 57.5028 42.6339 57.4776 42.7032 57.4602C42.7378 57.4515 42.7645 57.4447 42.7827 57.44C42.7918 57.4377 42.7988 57.4359 42.8036 57.4347C42.806 57.4341 42.8079 57.4336 42.8092 57.4332C42.8099 57.4331 42.8104 57.4329 42.8108 57.4328C42.8109 57.4328 42.8112 57.4327 42.8112 57.4327C42.8114 57.4327 42.8115 57.4327 42.6248 56.7115L42.8115 57.4327C42.8682 57.418 42.923 57.3969 42.975 57.3698ZM26.2189 42.9966C26.218 42.9967 26.2164 42.9971 26.2141 42.9975C26.2094 42.9985 26.2017 42.9999 26.1912 43.0019C26.17 43.0059 26.1373 43.0119 26.094 43.0195C26.0072 43.0346 25.8777 43.056 25.7126 43.08C25.3819 43.128 24.9101 43.186 24.352 43.2246C23.2267 43.3025 21.7904 43.2988 20.4612 43.0003C18.9951 42.6711 18.0483 42.5733 17.4459 42.5651C17.1436 42.5609 16.922 42.5792 16.7611 42.6045C16.6804 42.6171 16.614 42.6318 16.5597 42.6465C16.5325 42.6539 16.5082 42.6614 16.4866 42.6687C16.4758 42.6724 16.4657 42.6761 16.4562 42.6796C16.4514 42.6814 16.4468 42.6832 16.4424 42.685C16.4402 42.6858 16.438 42.6868 16.4358 42.6876C16.4348 42.6881 16.4337 42.6885 16.4327 42.6889C16.4321 42.6891 16.4313 42.6894 16.4311 42.6895C16.4307 42.6897 16.4303 42.6899 16.4672 42.7792L16.7267 43.4036L16.4295 42.6902C16.1728 42.7972 15.994 43.0337 15.96 43.3085C15.9589 43.3137 15.956 43.3267 15.9498 43.3443C15.9361 43.3836 15.9124 43.4304 15.8736 43.4714C15.8362 43.5109 15.6309 43.72 14.8818 43.5795C13.1544 43.2555 12.2719 42.681 10.9596 41.965L10.9595 41.965C10.8761 41.9195 10.7338 41.7742 10.5947 41.4123C10.4625 41.0683 10.3739 40.6341 10.3191 40.1825C10.2651 39.7368 10.2478 39.3062 10.2443 38.9844C10.2426 38.8245 10.2443 38.6936 10.2464 38.6039C10.2475 38.5591 10.2486 38.5247 10.2495 38.5022C10.2499 38.491 10.2503 38.4827 10.2505 38.4776C10.2506 38.4751 10.2507 38.4734 10.2507 38.4725V38.4718L10.2516 38.4441C10.252 38.416 10.2509 38.388 10.2482 38.3601C10.2481 38.3596 10.2481 38.359 10.248 38.3581C10.2477 38.3548 10.2472 38.3488 10.2465 38.3401C10.2452 38.3229 10.2433 38.2954 10.2413 38.2589C10.2373 38.1856 10.233 38.0769 10.2327 37.9424C10.232 37.6714 10.2474 37.3066 10.309 36.9226C10.4409 36.0999 10.7411 35.4422 11.2544 35.1693C12.0026 34.7716 13.3246 34.3868 14.7703 34.0931C16.1545 33.812 17.5624 33.6321 18.5271 33.5961L18.619 33.593C20.8821 33.5283 24.7902 32.0834 27.2795 28.7838C28.3379 27.3809 30.4373 26.0148 32.3767 24.9718C33.3284 24.46 34.21 24.0422 34.8538 23.7525C35.1754 23.6078 35.4367 23.4954 35.6168 23.4195C35.7068 23.3816 35.7765 23.3528 35.8231 23.3337C35.8409 23.3265 35.8554 23.3206 35.8664 23.3162C38.624 22.4343 41.0852 22.814 42.8732 23.4238C43.77 23.7296 44.4916 24.0916 44.9861 24.3753C45.233 24.5169 45.4222 24.6384 45.5471 24.7225C45.5768 24.7424 45.6027 24.7604 45.625 24.7759C45.7074 24.8558 45.8056 24.9151 45.9115 24.9514C46.2237 25.0722 46.5905 24.979 46.8039 24.6994C46.9512 24.5065 46.9937 24.2663 46.9405 24.0474C47.1796 17.0475 50.573 13.2797 51.8108 12.1308C53.1238 13.3088 53.9234 15.1234 54.3904 17.0478C54.8693 19.0212 54.9733 21.0045 54.9784 22.2802C54.982 23.1663 55.0702 24.0445 55.2224 24.9068C55.5009 26.4839 55.6267 29.0869 55.6515 32.1707C55.6762 35.2382 55.6011 38.7302 55.4911 42.0577C55.3811 45.384 55.2366 48.5399 55.1228 50.9349C55.0659 52.1311 55.0166 53.1405 54.9834 53.8834C54.9513 54.5985 54.9307 55.1273 54.9399 55.3117C54.9486 55.4855 54.9143 55.5578 54.9039 55.5767C54.8934 55.5958 54.8798 55.6101 54.8533 55.6253C54.8357 55.6353 54.8153 55.6438 54.7936 55.6508C51.2466 54.4367 48.1531 54.5017 45.9298 54.8807C44.8003 55.0732 43.8949 55.3468 43.2668 55.5748C42.9526 55.6889 42.7072 55.7917 42.5372 55.8677C42.4574 55.9034 42.3941 55.9334 42.3481 55.9556C42.3413 55.9574 42.334 55.9592 42.3263 55.9611C42.2607 55.9776 42.1635 56.0018 42.0383 56.0323C41.7879 56.0932 41.4262 56.179 40.9835 56.2778C40.0972 56.4756 38.8908 56.7245 37.6059 56.9307C36.3173 57.1375 34.9685 57.2981 33.792 57.3252C32.5751 57.3532 31.6863 57.2321 31.2152 56.9869C29.6893 56.1928 28.34 56.2929 26.6556 56.3029C24.9528 56.3131 22.6523 56.2577 18.9332 55.3133C15.3392 54.4007 13.4076 52.5119 12.3648 50.8869C11.8959 50.1561 11.6021 49.4708 11.421 48.9389C11.5126 48.9613 11.6084 48.9863 11.7078 49.0146C12.5297 49.2486 13.5768 49.6926 14.5184 50.5299L14.5777 50.5818C15.8263 51.6574 17.2761 51.8273 18.3622 51.7462C18.9159 51.7049 19.3924 51.5978 19.731 51.5013C19.9011 51.4529 20.0386 51.4064 20.1361 51.371C20.1849 51.3533 20.2239 51.3383 20.2522 51.3271C20.2663 51.3215 20.2778 51.3168 20.2865 51.3132C20.2908 51.3114 20.2944 51.3099 20.2974 51.3087C20.2988 51.308 20.3001 51.3075 20.3012 51.307C20.3018 51.3068 20.3023 51.3066 20.3028 51.3064C20.303 51.3063 20.3033 51.3062 20.3034 51.3061C20.3037 51.306 20.304 51.3058 20.0048 50.6074L20.3041 51.3058C20.4252 51.2539 20.531 51.1719 20.6114 51.0675C21.1899 50.3174 21.8947 50.201 22.5182 50.2741C22.8402 50.3118 23.1306 50.4017 23.3433 50.4849C23.4483 50.5259 23.5308 50.5639 23.5845 50.5902C23.6113 50.6033 23.6306 50.6133 23.6418 50.6192C23.6473 50.6222 23.6508 50.6241 23.6521 50.6249L23.6513 50.6244C23.6511 50.6243 23.6508 50.6241 23.6505 50.6239C23.6505 50.6239 23.6502 50.6238 23.6501 50.6238C23.6865 50.6445 23.7245 50.6622 23.7637 50.6768L24.0327 49.9523C23.7637 50.6768 23.7644 50.677 23.765 50.6773C23.7652 50.6774 23.7659 50.6776 23.7663 50.6777C23.7672 50.6781 23.7682 50.6784 23.7691 50.6787C23.7711 50.6794 23.7731 50.6802 23.7752 50.6809C23.7796 50.6825 23.7844 50.6842 23.7898 50.686C23.8005 50.6897 23.8132 50.6939 23.8281 50.6985C23.8578 50.7077 23.896 50.7187 23.9434 50.7309C24.0383 50.7552 24.1705 50.7841 24.3461 50.8122C24.6969 50.8685 25.2233 50.9221 25.9755 50.9297C27.4784 50.945 29.8979 50.7769 33.6447 50.0685C37.6199 49.317 40.0042 46.9429 41.3785 44.7835C42.0637 43.7069 42.502 42.6789 42.7696 41.9192C42.9037 41.5386 42.9957 41.2231 43.0549 40.9997C43.0844 40.8879 43.1058 40.799 43.1202 40.7362C43.1273 40.7048 43.1328 40.6799 43.1366 40.662C43.1385 40.653 43.14 40.6458 43.1411 40.6403C43.1417 40.6376 43.1421 40.6353 43.1425 40.6335C43.1427 40.6326 43.1428 40.6318 43.143 40.6311C43.143 40.6308 43.1431 40.6303 43.1431 40.6302C43.1432 40.6298 43.1433 40.6294 42.3853 40.4801L43.1433 40.6294C43.2149 40.2656 43.0181 39.9022 42.6744 39.7635C42.3308 39.6247 41.937 39.7496 41.7361 40.0611C41.7495 40.0404 41.7283 40.0805 41.5976 40.1638C41.4762 40.2412 41.3014 40.33 41.0672 40.4266C40.5989 40.6196 39.9637 40.8149 39.2012 41.0069C37.6804 41.3899 35.7433 41.7382 33.8225 42.033C31.9058 42.3272 30.0232 42.5653 28.6185 42.7301C27.9166 42.8124 27.3348 42.8763 26.9289 42.9195C26.7259 42.9412 26.567 42.9577 26.459 42.9687C26.405 42.9743 26.3637 42.9784 26.3361 42.9812C26.3223 42.9826 26.3119 42.9836 26.305 42.9843C26.3015 42.9846 26.2989 42.9849 26.2972 42.985C26.2964 42.9851 26.2958 42.9852 26.2954 42.9852C26.2952 42.9852 26.295 42.9853 26.295 42.9853C26.2696 42.9878 26.2443 42.9916 26.2193 42.9966C26.2193 42.9966 26.219 42.9965 26.2189 42.9966ZM43.5666 22.0289C43.5025 22.0059 43.4375 21.9831 43.3717 21.9607C41.6551 21.3753 39.3541 20.969 36.7542 21.491C36.7869 21.3885 36.8212 21.2813 36.857 21.17C37.1745 20.1853 37.6126 18.8793 38.0975 17.5859C38.5851 16.2857 39.1096 15.0263 39.5975 14.1213C39.8443 13.6635 40.0603 13.3374 40.2335 13.1448C40.2529 13.1233 40.2708 13.1046 40.287 13.0885C40.3703 13.1388 40.4822 13.2288 40.6198 13.3871C40.846 13.6472 41.0845 14.0259 41.3264 14.5124C41.8092 15.4835 42.2463 16.7626 42.6164 18.063C42.9845 19.3561 43.2774 20.6382 43.4786 21.5994C43.5103 21.7511 43.5395 21.8947 43.5666 22.0289ZM45.7219 24.8452C45.7218 24.8451 45.7215 24.8449 45.7215 24.8449L45.7223 24.8455C45.7223 24.8455 45.7221 24.8454 45.7219 24.8452ZM10.2482 38.3605C10.2483 38.3606 10.2482 38.3609 10.2482 38.3609C10.2483 38.3611 10.2483 38.361 10.2483 38.361C10.2483 38.361 10.2483 38.3607 10.2482 38.3605ZM15.9573 43.3325C15.9574 43.3323 15.9574 43.3319 15.9575 43.3315C15.9575 43.3308 15.9576 43.3301 15.9577 43.3294C15.9578 43.3281 15.9579 43.3268 15.958 43.3256C15.9583 43.3232 15.9585 43.321 15.9588 43.3191C15.9591 43.3162 15.9594 43.3138 15.9596 43.3119C15.9588 43.3188 15.958 43.3257 15.9574 43.3326L15.9573 43.3325ZM10.3851 47.9935L10.4117 47.2211C10.1857 47.2133 9.96771 47.3049 9.81509 47.4718C9.66247 47.6386 9.59056 47.864 9.61834 48.0885L10.3851 47.9935ZM11.1514 47.8959L11.1514 47.8961C11.1515 47.8964 11.1515 47.8967 11.1516 47.897C11.1516 47.8972 11.1517 47.8977 11.1517 47.8977L11.1516 47.8978C11.1515 47.8968 11.1514 47.8961 11.1514 47.8959Z" fill="currentColor"/>
</svg>
