<svg width="48" height="36" fill="none" viewBox="0 0 48 36"><path fill="#FF6B6B" d="M40.684 12.824c-.292.729-.146 1.02.583 1.166 5.104.584 6.562 3.5 6.562 8.604v3.791c0 5.833-3.062 8.895-8.895 8.895h-3.791c-5.979 0-8.895-3.062-8.895-8.895v-4.52c0-3.5.437-5.687 2.187-8.895L33.83 2.908C34.851 1.012 35.29.721 37.33.721h4.812c1.458 0 2.041.437 2.041 1.458 0 .437-.145.875-.437 1.75l-3.062 8.895Zm-26.248 0c-.291.729-.146 1.02.584 1.166 5.103.584 6.561 3.5 6.561 8.604v3.791c0 5.833-3.062 8.895-8.895 8.895H8.895C2.916 35.28 0 32.218 0 26.385v-4.52c0-3.5.437-5.687 2.187-8.895L7.583 2.908C8.603 1.012 9.04.721 11.083.721h4.811c1.459 0 2.042.437 2.042 1.458 0 .437-.146.875-.438 1.75l-3.062 8.895Z"/></svg>