<svg width="40" height="40" viewBox="0 0 40 40" fill="none" xmlns="http://www.w3.org/2000/svg">
<path d="M24.1484 13.6928C22.4237 13.6928 21.0255 15.0961 21.0255 16.827C21.0255 18.558 22.4237 19.7826 24.1484 19.7826C25.8731 19.7826 27.2712 18.558 27.2712 16.827C27.2712 14.62 25.8731 13.6928 24.1484 13.6928ZM24.1484 14.102C24.9526 14.102 25.6221 14.3216 26.0847 14.7372C26.6015 15.2015 26.8636 15.9046 26.8636 16.827C26.8636 17.5375 26.5854 18.186 26.0804 18.653C25.5779 19.1176 24.8918 19.3735 24.1484 19.3735C23.405 19.3735 22.7189 19.1176 22.2164 18.653C21.7113 18.186 21.4332 17.5375 21.4332 16.827C21.4332 15.3244 22.6512 14.102 24.1484 14.102Z" fill="#008DDC"/>
<path d="M26.2756 16.6258C26.2756 17.8174 25.313 18.7833 24.1257 18.7833C22.9384 18.7833 21.9759 17.9959 21.9759 16.8043C21.9759 15.6127 22.9384 14.6467 24.1257 14.6467C25.313 14.6467 26.2756 15.4342 26.2756 16.6258Z" fill="#008DDC"/>
<path d="M5.89909 25.6099C5.99521 25.6687 6.12064 25.6382 6.17924 25.5418C6.17924 25.5418 6.18073 25.5394 6.18212 25.5373C6.18489 25.5329 6.18947 25.5259 6.19585 25.5166C6.20863 25.4979 6.22853 25.4699 6.25546 25.4355C6.30945 25.3665 6.39086 25.2726 6.4987 25.1753C6.70842 24.986 7.01055 24.7908 7.40084 24.7322L7.43888 24.7269L7.4843 24.721C7.95361 24.6568 8.4231 24.5113 8.77498 24.3824C8.95757 24.3156 9.11062 24.2524 9.21831 24.2058C9.27219 24.1825 9.31484 24.1633 9.34424 24.1498C9.35894 24.1431 9.37035 24.1377 9.37821 24.134C9.3799 24.1332 9.38143 24.1325 9.3828 24.1319C9.64466 24.033 9.80546 23.8219 9.89932 23.5831C9.99323 23.3441 10.0276 23.0613 10.0321 22.7847C10.0405 22.2648 9.94382 21.7143 9.87569 21.3938L9.86252 21.3329C9.81748 21.1288 9.69538 20.949 9.51884 20.8342C8.93074 20.4519 7.93383 20.157 7.11024 19.9592C6.69332 19.8591 6.31176 19.7818 6.0345 19.7295C5.89581 19.7034 5.78303 19.6835 5.70475 19.6701C5.6656 19.6634 5.63504 19.6583 5.6142 19.6549C5.60379 19.6532 5.59579 19.6519 5.59035 19.651C5.58763 19.6506 5.58555 19.6502 5.58412 19.65L5.58248 19.6497C5.58248 19.6497 5.58058 19.6575 5.55023 19.8517L5.5818 19.6496C5.47059 19.6321 5.36631 19.7084 5.34887 19.82C5.33143 19.9317 5.40744 20.0363 5.51865 20.0538L5.52033 20.0541C5.52033 20.0541 5.52343 20.0546 5.52593 20.055C5.53095 20.0558 5.53854 20.057 5.54851 20.0587C5.56846 20.0619 5.59804 20.0668 5.63619 20.0734C5.7125 20.0864 5.82303 20.106 5.95926 20.1316C6.23186 20.183 6.60659 20.2589 7.01533 20.3571C7.84306 20.5559 8.77509 20.8382 9.29718 21.1776C9.38213 21.2328 9.44213 21.3201 9.46446 21.4214C9.53046 21.7204 9.63267 22.2722 9.62443 22.778C9.6203 23.0316 9.58847 23.2589 9.52007 23.433C9.45293 23.6038 9.35846 23.706 9.23365 23.7511C9.22715 23.7535 9.22078 23.7562 9.21454 23.7592L9.21253 23.7601C9.21095 23.7608 9.20846 23.762 9.2051 23.7636C9.19839 23.7668 9.18817 23.7715 9.17472 23.7777C9.1478 23.7901 9.10789 23.808 9.05696 23.8301C8.95502 23.8742 8.80927 23.9343 8.63524 23.998C8.28525 24.1262 7.82925 24.2656 7.3883 24.321C6.8718 24.3857 6.48255 24.6397 6.22616 24.871C6.09756 24.987 6.00032 25.0991 5.93481 25.1828C5.90199 25.2248 5.87694 25.2599 5.85968 25.2851C5.85105 25.2978 5.84435 25.308 5.8396 25.3154C5.83722 25.3191 5.83533 25.3221 5.83393 25.3243C5.83322 25.3254 5.83217 25.3271 5.83217 25.3271L5.83157 25.3281C5.83157 25.3281 5.83116 25.3288 6.0052 25.4353L5.83116 25.3288C5.77256 25.4252 5.80297 25.5511 5.89909 25.6099Z" fill="#008DDC"/>
<path d="M4.52744 21.027C4.52744 21.027 6.5071 22.2083 4.74147 24.7321Z" fill="#008DDC"/>
<path d="M5.81705 25.4304C5.81705 25.4304 6.07052 22.5366 7.28451 22.6634C8.49851 22.7902 9.81927 22.8865 9.81927 22.8865L9.51892 23.8077L7.90708 24.4486L6.77166 24.7321L6.15766 25.4352L5.81705 25.4304Z" fill="#008DDC"/>
<path d="M9.45224 30.7357L9.45299 30.733C9.45355 30.7311 9.4544 30.7283 9.45553 30.7245C9.45778 30.7169 9.46118 30.7056 9.4656 30.6909C9.47446 30.6613 9.48755 30.6179 9.50438 30.5626C9.53807 30.452 9.58677 30.2938 9.64681 30.1037C9.76695 29.7235 9.93212 29.2167 10.1126 28.7094C10.2936 28.2008 10.4882 27.6969 10.6669 27.3199C10.7567 27.1304 10.8389 26.9807 10.9098 26.88C10.9328 26.8475 10.9526 26.8229 10.9689 26.8049C10.9748 26.812 10.9814 26.8204 10.9885 26.8303C11.04 26.9015 11.099 27.0158 11.1623 27.1698C11.2878 27.475 11.4125 27.8922 11.5237 28.3191C11.6344 28.7441 11.7297 29.1712 11.7975 29.4925C11.8314 29.6531 11.8583 29.7869 11.8768 29.8805C11.886 29.9273 11.8931 29.964 11.8979 29.9889C11.9003 30.0014 11.902 30.0109 11.9032 30.0173C11.9038 30.0205 11.9043 30.0229 11.9046 30.0245L11.9049 30.0262L12.1054 29.9891C12.3057 29.9515 12.3057 29.9514 12.3057 29.9514L12.3056 29.9508L12.3053 29.9488C12.3049 29.947 12.3044 29.9445 12.3038 29.9411C12.3025 29.9344 12.3007 29.9246 12.2982 29.9118C12.2933 29.8861 12.2861 29.8487 12.2767 29.8012C12.258 29.706 12.2307 29.5704 12.1964 29.4078C12.1278 29.0829 12.0309 28.649 11.9181 28.2156C11.8057 27.7841 11.6755 27.3452 11.5392 27.0138C11.4717 26.8495 11.3982 26.7003 11.3185 26.5901C11.2787 26.535 11.2312 26.4809 11.1745 26.4402C11.1205 26.4014 11.048 26.3679 10.9622 26.3698L10.9448 26.3706C10.8495 26.378 10.7746 26.4291 10.7245 26.473C10.6713 26.5197 10.6221 26.5797 10.5769 26.6439C10.4861 26.7729 10.3921 26.9471 10.2987 27.1441C10.111 27.5401 9.91098 28.0595 9.7287 28.5718C9.54596 29.0853 9.37919 29.5971 9.2582 29.9801C9.19767 30.1717 9.14854 30.3313 9.1145 30.4431C9.09748 30.499 9.08421 30.5429 9.0752 30.5729C9.0707 30.588 9.06726 30.5995 9.06494 30.6073C9.06377 30.6112 9.06288 30.6142 9.06229 30.6162L9.06161 30.6185L9.06139 30.6193C9.06139 30.6193 9.06626 30.6208 9.25678 30.6776C9.45218 30.7358 9.45224 30.7357 9.45224 30.7357ZM11.9049 30.0262C11.9256 30.1373 12.0322 30.211 12.1429 30.1902C12.2535 30.1694 12.3264 30.0625 12.3057 29.9514L12.1054 29.9891L11.9049 30.0262ZM9.19874 30.8737C9.30665 30.9058 9.42019 30.844 9.45224 30.7357L9.06139 30.6193C9.02935 30.7276 9.09083 30.8415 9.19874 30.8737Z" fill="#008DDC"/>
<path d="M8.87676 28.946C8.96252 28.9482 9.02999 28.9005 9.06117 28.8767C9.10161 28.8458 9.14241 28.8053 9.1818 28.7617C9.26137 28.6738 9.35382 28.5525 9.45214 28.4132C9.6497 28.1333 9.88408 27.7622 10.1075 27.3942C10.3314 27.0255 10.5461 26.6569 10.7047 26.3807C10.7841 26.2425 10.8495 26.1273 10.8951 26.0467C10.9179 26.0063 10.9357 25.9746 10.9478 25.9529C10.9539 25.9421 10.9586 25.9337 10.9617 25.9281C10.9633 25.9253 10.9645 25.9231 10.9653 25.9217L10.9662 25.9201C10.9662 25.9201 10.9629 25.9174 10.8064 25.8295L10.9666 25.9195C11.0161 25.8307 10.9845 25.7184 10.8961 25.6687C10.8104 25.6206 10.7027 25.6488 10.651 25.7313L10.6462 25.7395L10.6451 25.7415C10.6443 25.7429 10.6431 25.745 10.6416 25.7477C10.6385 25.7532 10.6339 25.7614 10.6279 25.7721C10.6159 25.7934 10.5983 25.8249 10.5757 25.8649C10.5304 25.945 10.4655 26.0594 10.3866 26.1967C10.2288 26.4714 10.0157 26.8372 9.79395 27.2025C9.57174 27.5685 9.34265 27.9309 9.15258 28.2002C9.05708 28.3355 8.97466 28.4426 8.91001 28.514C8.8931 28.5327 8.8786 28.5476 8.86649 28.5592C8.85936 28.5524 8.85077 28.5434 8.84074 28.5313C8.79812 28.4799 8.75045 28.3979 8.70063 28.2855C8.6017 28.0623 8.51104 27.7584 8.4338 27.4455C8.35705 27.1346 8.2955 26.8231 8.25308 26.5887C8.2319 26.4717 8.21559 26.3742 8.20456 26.3062C8.19905 26.2722 8.19485 26.2456 8.19206 26.2275C8.19066 26.2185 8.18961 26.2116 8.18892 26.207C8.18858 26.2047 8.18814 26.2019 8.18814 26.2019L8.18799 26.2007C8.1731 26.1 8.07967 26.0302 7.97939 26.0452C7.8791 26.0601 7.80986 26.1538 7.82476 26.2545L8.00634 26.2274C7.82475 26.2545 7.82476 26.2545 7.82476 26.2545L7.82506 26.2566C7.82506 26.2566 7.82554 26.2598 7.82591 26.2623C7.82666 26.2672 7.82778 26.2746 7.82924 26.284C7.83215 26.3029 7.83648 26.3304 7.84215 26.3654C7.85348 26.4353 7.87023 26.535 7.89186 26.6545C7.93508 26.8933 7.99818 27.213 8.07744 27.5341C8.15621 27.8532 8.25296 28.1821 8.36516 28.4353C8.42091 28.561 8.48475 28.6781 8.55861 28.7671C8.62918 28.8522 8.73494 28.9424 8.87676 28.946Z" fill="#008DDC"/>
<path d="M6.02372 25.9726L6.02323 25.9742C6.02279 25.9756 6.02207 25.9779 6.02107 25.981C6.01905 25.9872 6.01592 25.9967 6.0117 26.009C6.00324 26.0336 5.99052 26.0691 5.97396 26.111C5.94045 26.196 5.89288 26.3032 5.83475 26.4011C5.77423 26.5029 5.71359 26.575 5.66112 26.6102C5.63724 26.6262 5.62165 26.6301 5.61319 26.6309C5.60667 26.6315 5.59442 26.6313 5.57247 26.6192C5.53288 26.5974 5.46799 26.518 5.40172 26.3416C5.34017 26.1779 5.29285 25.9732 5.25746 25.7673C5.22234 25.5628 5.20022 25.3645 5.18688 25.2168C5.18024 25.1431 5.17579 25.0825 5.17304 25.0405C5.17166 25.0195 5.17073 25.0031 5.17013 24.9922C5.16982 24.9867 5.16959 24.9826 5.16945 24.9799C5.16939 24.9786 5.16931 24.977 5.16931 24.977L5.16927 24.9763C5.16403 24.8634 5.06864 24.7762 4.95619 24.7815C4.84374 24.7867 4.75684 24.8825 4.76207 24.9953L4.96567 24.9858C4.76992 24.9949 4.76207 24.9953 4.76207 24.9953L4.76214 24.9969C4.76214 24.9969 4.76225 24.9991 4.76233 25.0007C4.7625 25.004 4.76274 25.0088 4.76308 25.0149C4.76375 25.0271 4.76478 25.0448 4.76625 25.0672C4.76919 25.1121 4.77385 25.1762 4.78084 25.2537C4.79479 25.4083 4.81815 25.6181 4.85571 25.8368C4.89301 26.0539 4.94561 26.2874 5.02027 26.486C5.09021 26.6721 5.1978 26.8794 5.37608 26.9778C5.46305 27.0258 5.55579 27.0468 5.64955 27.0384C5.74136 27.0302 5.82135 26.9949 5.88767 26.9504C6.00128 26.8742 6.09145 26.7597 6.15998 26.6512C6.25352 26.8949 6.41621 27.1817 6.70013 27.3351C6.8767 27.4305 7.05109 27.4354 7.20418 27.364C7.30446 27.3173 7.3833 27.2435 7.44429 27.1671C7.54339 27.382 7.71129 27.6184 7.99466 27.7893C8.09115 27.8475 8.21638 27.8162 8.27436 27.7193C8.33235 27.6225 8.30113 27.4968 8.20464 27.4386C7.96381 27.2934 7.83855 27.0791 7.77277 26.8931C7.73993 26.8002 7.72285 26.7167 7.71406 26.6571C7.70969 26.6274 7.70745 26.6041 7.7063 26.5889C7.70573 26.5814 7.70543 26.5759 7.70529 26.5728C7.70522 26.5712 7.70518 26.5699 7.70518 26.5699L7.70481 26.5611C7.69851 26.4624 7.62237 26.3817 7.52353 26.3709C7.42163 26.3597 7.32735 26.4262 7.30328 26.5262L7.30306 26.527C7.30306 26.527 7.30243 26.5295 7.30182 26.5319C7.3006 26.5365 7.29859 26.544 7.29581 26.5536C7.29024 26.573 7.2816 26.6011 7.2698 26.6343C7.24569 26.702 7.21063 26.7845 7.16507 26.8564C7.11771 26.9311 7.07125 26.9749 7.03242 26.993C7.00642 27.0051 6.9674 27.0149 6.89339 26.9749C6.71375 26.8778 6.5907 26.6614 6.51306 26.4277C6.47598 26.316 6.45281 26.2111 6.43898 26.1339C6.4321 26.0956 6.42762 26.0645 6.42491 26.0436C6.42355 26.0332 6.42265 26.0253 6.42211 26.0203C6.42184 26.0178 6.42155 26.015 6.42155 26.015C6.41273 25.9177 6.33649 25.8396 6.23963 25.8294C6.14283 25.8193 6.0524 25.8793 6.02372 25.9726Z" fill="#008DDC"/>
<path d="M9.41518 30.6768C9.52765 30.6719 9.61488 30.5765 9.61001 30.4636C9.59059 30.013 9.52122 29.6927 9.41485 29.4694C9.30582 29.2405 9.1531 29.1056 8.97611 29.0532C8.8072 29.0032 8.65095 29.039 8.54868 29.0774C8.49606 29.0972 8.45273 29.1195 8.42219 29.1371C8.4068 29.1459 8.39431 29.1538 8.38513 29.1598C8.38053 29.1628 8.37672 29.1653 8.37378 29.1674C8.37232 29.1684 8.37001 29.17 8.37001 29.17L8.36863 29.171L8.36807 29.1714C8.36807 29.1714 8.36756 29.1718 8.4871 29.3375L8.36807 29.1714C8.36189 29.1759 8.35543 29.1811 8.34978 29.1863L8.08285 29.4305C8.07355 29.3389 8.06146 29.2388 8.04549 29.1369C8.01647 28.9517 7.97358 28.7512 7.90881 28.5825C7.87637 28.498 7.83587 28.4145 7.784 28.3432C7.73572 28.2768 7.67064 28.2115 7.58402 28.172L7.5664 28.1645C7.38015 28.0897 7.203 28.1584 7.07757 28.2399C6.96575 28.3125 6.86344 28.4146 6.77734 28.5154C6.77593 28.5049 6.77446 28.4944 6.7729 28.4839C6.74836 28.3185 6.70355 28.1323 6.61626 27.982C6.5256 27.826 6.37261 27.6855 6.14135 27.6855C5.95373 27.6855 5.78172 27.7588 5.63842 27.8502C5.49401 27.9422 5.36492 28.0615 5.2591 28.175C5.15259 28.2892 5.06498 28.4025 5.00418 28.4868C4.97364 28.5292 4.94953 28.5647 4.93285 28.59C4.92451 28.6026 4.91802 28.6127 4.91348 28.6198C4.91121 28.6234 4.90942 28.6263 4.90814 28.6283L4.90658 28.6308L4.90609 28.6316C4.90609 28.6316 4.90963 28.6344 5.07927 28.7395L4.90609 28.6316C4.84696 28.7277 4.87643 28.8542 4.97223 28.9136C5.06801 28.9729 5.19358 28.9431 5.25271 28.847L5.25346 28.8458C5.25419 28.8446 5.2554 28.8427 5.25708 28.84C5.26045 28.8347 5.2657 28.8266 5.27268 28.816C5.28668 28.7948 5.30759 28.7639 5.33445 28.7267C5.38846 28.6518 5.4652 28.5527 5.55675 28.4546C5.64898 28.3557 5.75169 28.2626 5.85702 28.1955C5.96344 28.1276 6.05912 28.0947 6.14135 28.0947C6.17996 28.0947 6.21879 28.1102 6.26407 28.1881C6.3127 28.2719 6.34794 28.3976 6.3697 28.5442C6.3909 28.6871 6.39692 28.8325 6.39739 28.9439C6.39762 28.9992 6.39647 29.0451 6.3953 29.0769C6.39471 29.0927 6.39413 29.105 6.39369 29.1131C6.39348 29.1171 6.39332 29.1201 6.39321 29.122L6.39306 29.124L6.39265 29.1331C6.39039 29.2255 6.45036 29.3085 6.53948 29.3345C6.63145 29.3614 6.72964 29.3203 6.77544 29.2359L6.77634 29.2343C6.7771 29.2329 6.77832 29.2307 6.77999 29.2277C6.78336 29.2217 6.78853 29.2125 6.79533 29.2007C6.80895 29.1772 6.82903 29.1433 6.85438 29.1029C6.90545 29.0216 6.97618 28.9166 7.05679 28.8177C7.13917 28.7166 7.22322 28.6326 7.29913 28.5833C7.37751 28.5324 7.40852 28.5418 7.41502 28.5444C7.41502 28.5444 7.43072 28.5514 7.45473 28.5844C7.47841 28.617 7.50361 28.665 7.52841 28.7296C7.57808 28.859 7.61556 29.0269 7.64276 29.2004C7.66967 29.3721 7.68519 29.5405 7.69397 29.6666C7.69835 29.7294 7.70103 29.7812 7.70259 29.8172C7.70338 29.8351 7.70389 29.8491 7.7042 29.8584C7.70435 29.863 7.70443 29.8665 7.7045 29.8687L7.70457 29.8712C7.70649 29.9513 7.75482 30.0235 7.82823 30.055C7.90165 30.0865 7.98665 30.072 8.04567 30.018L8.61243 29.4997C8.61563 29.4977 8.61977 29.495 8.62486 29.4921C8.64077 29.4829 8.66397 29.471 8.69163 29.4606C8.74994 29.4386 8.80936 29.4304 8.86082 29.4456C8.90422 29.4585 8.97663 29.498 9.04703 29.6458C9.12008 29.7992 9.18444 30.0578 9.2027 30.4813C9.20757 30.5942 9.30271 30.6817 9.41518 30.6768Z" fill="#008DDC"/>
<path d="M24.4416 27.2806C24.5143 27.3669 24.6429 27.3776 24.7289 27.3046C24.8147 27.2316 24.8255 27.1026 24.7528 27.0164C24.7528 27.0164 24.7514 27.0147 24.7504 27.0135C24.7485 27.0111 24.7453 27.0073 24.7412 27.0021C24.7328 26.9918 24.7203 26.9761 24.7045 26.9555C24.6728 26.9142 24.6279 26.8536 24.5765 26.7776C24.4733 26.625 24.346 26.4141 24.2457 26.177C24.04 25.6909 23.9755 25.1696 24.334 24.7785C24.4102 24.6954 24.4048 24.566 24.322 24.4895C24.2391 24.413 24.1102 24.4184 24.034 24.5015C23.5057 25.0777 23.6478 25.8107 23.8704 26.3369C23.9843 26.6061 24.1265 26.8409 24.2393 27.0075C24.2959 27.0911 24.3457 27.1584 24.3816 27.2052C24.3996 27.2287 24.4141 27.247 24.4244 27.2597C24.4295 27.2661 24.4336 27.2711 24.4365 27.2746C24.438 27.2763 24.4391 27.2777 24.44 27.2787L24.441 27.28L24.4416 27.2806C24.4416 27.2806 24.4479 27.2753 24.5887 27.1556L24.4416 27.2806Z" fill="#008DDC"/>
<path d="M16.7068 25.8177C16.6727 25.7327 16.5866 25.681 16.4958 25.6909C16.405 25.7008 16.3319 25.77 16.3168 25.8604L16.3166 25.8611C16.3166 25.8611 16.3163 25.8629 16.3161 25.8644C16.3155 25.8675 16.3147 25.8722 16.3136 25.8785C16.3113 25.8912 16.3077 25.9101 16.303 25.9341C16.2934 25.9823 16.2788 26.0511 16.2592 26.1324C16.2195 26.2961 16.1603 26.5054 16.0808 26.6978C15.9987 26.8966 15.9062 27.0494 15.8131 27.1274C15.77 27.1634 15.7357 27.176 15.7085 27.1784C15.6826 27.1807 15.6416 27.1758 15.58 27.1368C15.2377 26.9198 14.9737 26.6481 14.7947 26.4286C14.7055 26.3193 14.6383 26.224 14.5938 26.1568C14.5715 26.1232 14.555 26.0968 14.5443 26.0791C14.539 26.0703 14.5351 26.0637 14.5327 26.0596C14.5315 26.0575 14.5302 26.0552 14.5302 26.0552L14.5298 26.0544C14.4925 25.9879 14.4214 25.9479 14.3454 25.9504C14.2693 25.9529 14.201 25.9978 14.1682 26.0667L14.1679 26.0674C14.1679 26.0674 14.1671 26.0691 14.1664 26.0704C14.1651 26.0732 14.1631 26.0774 14.1604 26.0829C14.155 26.094 14.1468 26.1105 14.1362 26.1316C14.1149 26.1738 14.0838 26.2341 14.0449 26.3058C13.9669 26.4498 13.8587 26.637 13.7367 26.8144C13.6126 26.9948 13.483 27.1519 13.3642 27.2466C13.2365 27.3484 13.1887 27.3292 13.1775 27.3231C13.0851 27.2732 12.9722 27.1714 12.8491 27.0289C12.7289 26.8896 12.6105 26.7251 12.5051 26.5653C12.4 26.406 12.3098 26.2544 12.2459 26.1426C12.214 26.0867 12.1887 26.041 12.1715 26.0094C12.163 25.9936 12.1564 25.9814 12.152 25.9732C12.1499 25.9691 12.1482 25.9661 12.1472 25.9641L12.146 25.9619C12.0938 25.8618 11.9703 25.8227 11.8706 25.8752C11.7709 25.9276 11.7324 26.0513 11.7847 26.1514L11.9591 26.0596C11.7847 26.1514 11.7847 26.1514 11.7847 26.1514L11.7853 26.1526C11.7853 26.1526 11.7862 26.1542 11.7869 26.1554C11.7882 26.1579 11.7901 26.1615 11.7925 26.1661C11.7974 26.1753 11.8045 26.1886 11.8137 26.2054C11.8321 26.2392 11.8588 26.2875 11.8923 26.3461C11.9592 26.4632 12.0539 26.6226 12.1651 26.7911C12.2759 26.9592 12.4051 27.1394 12.541 27.2968C12.6741 27.451 12.826 27.5978 12.9842 27.6833C13.2235 27.8126 13.46 27.6926 13.6177 27.567C13.7842 27.4343 13.9411 27.2374 14.0722 27.0468C14.1905 26.8748 14.2951 26.6971 14.3744 26.5536C14.4057 26.5955 14.4406 26.6405 14.4792 26.6878C14.6765 26.9296 14.9721 27.2354 15.3623 27.4827L15.3852 27.4967C15.5 27.5643 15.621 27.5969 15.7443 27.586C15.8745 27.5745 15.9849 27.5164 16.0743 27.4415C16.2461 27.2976 16.3694 27.0675 16.4574 26.8544C16.5131 26.7196 16.5591 26.5801 16.5961 26.4521C16.6192 26.4858 16.6438 26.5202 16.67 26.5551C16.8969 26.8569 17.2564 27.2103 17.7646 27.3462C18.0636 27.4261 18.3078 27.3351 18.4856 27.1565C18.651 26.9902 18.7536 26.7551 18.8196 26.5387C18.836 26.4849 18.8506 26.4309 18.8635 26.3775C19.0458 26.6003 19.3323 26.8118 19.7764 26.9274L19.7893 26.9303C19.8194 26.9361 19.8506 26.9349 19.8804 26.9269L19.8276 26.7294C19.8804 26.9269 19.8804 26.9269 19.8804 26.9269L19.8815 26.9266L19.8829 26.9263C19.8829 26.9263 19.8852 26.9256 19.8866 26.9252C19.8896 26.9243 19.8934 26.9232 19.8979 26.9218C19.907 26.919 19.9193 26.9149 19.9343 26.9095C19.9643 26.8987 20.0054 26.8824 20.0542 26.859C20.1516 26.8124 20.2812 26.7371 20.4147 26.621C20.6027 26.4574 20.7937 26.2166 20.9148 25.8717C21.0885 26.0762 21.3571 26.3023 21.7597 26.4563C22.0323 26.5605 22.2712 26.5045 22.4561 26.3555C22.6268 26.2181 22.7416 26.0106 22.8196 25.8197C22.8465 25.7538 22.8701 25.6871 22.8908 25.6219C23.0844 25.8734 23.4078 26.1086 23.9249 26.1321C24.0374 26.1373 24.1327 26.0499 24.1378 25.9371C24.1429 25.8242 24.0559 25.7286 23.9435 25.7234C23.5274 25.7045 23.3049 25.5099 23.18 25.3256C23.1154 25.2303 23.0756 25.1352 23.0522 25.0638C23.0406 25.0283 23.0332 24.9995 23.0289 24.9804C23.0268 24.9709 23.0254 24.9639 23.0246 24.9598C23.0242 24.9578 23.024 24.9559 23.024 24.9559L23.0225 24.9474C23.0035 24.8507 22.918 24.7808 22.819 24.7825C22.7167 24.7843 22.6316 24.8619 22.62 24.9639L22.6196 24.9667C22.6193 24.9691 22.6188 24.9729 22.6182 24.978C22.6168 24.9883 22.6147 25.0038 22.6116 25.0237C22.6056 25.0637 22.5959 25.121 22.582 25.189C22.5538 25.3262 22.509 25.5015 22.4424 25.6645C22.374 25.8318 22.2918 25.9633 22.201 26.0364C22.1244 26.0981 22.0371 26.1244 21.9049 26.0739C21.5393 25.9341 21.3167 25.7264 21.1859 25.5579C21.1201 25.4732 21.0772 25.3979 21.0512 25.3454C21.0383 25.3192 21.0296 25.2988 21.0245 25.286C21.022 25.2796 21.0203 25.2751 21.0195 25.2728L21.0188 25.2708L21.0164 25.2637C20.9843 25.1764 20.8972 25.1214 20.8042 25.131C20.7083 25.1409 20.6324 25.2169 20.6224 25.3132C20.5679 25.8372 20.3458 26.1394 20.1476 26.3119C20.0468 26.3996 19.9495 26.4559 19.8788 26.4897C19.8564 26.5004 19.8368 26.5088 19.8207 26.5152C19.3947 26.3899 19.1873 26.1633 19.0823 25.9774C19.0259 25.8775 18.9967 25.785 18.9817 25.7186C18.9743 25.6856 18.9705 25.6594 18.9685 25.6427C18.9676 25.6344 18.9671 25.6285 18.9668 25.6253C18.9667 25.6237 18.9667 25.6226 18.9667 25.6226V25.6235C18.9634 25.513 18.8733 25.4257 18.7632 25.4256C18.6564 25.4255 18.5683 25.508 18.5598 25.6136L18.5592 25.6239C18.5592 25.6239 18.5592 25.6259 18.5591 25.6273C18.559 25.63 18.5588 25.6343 18.5586 25.6401C18.558 25.6517 18.5571 25.6691 18.5556 25.6914C18.5526 25.7361 18.5473 25.8004 18.5383 25.877C18.5201 26.0313 18.4874 26.2303 18.4298 26.4189C18.3709 26.6119 18.2927 26.7713 18.1972 26.8674C18.1139 26.951 18.0168 26.9902 17.8696 26.9508C17.4854 26.8481 17.1952 26.5744 16.9955 26.3087C16.8968 26.1774 16.8237 26.0527 16.7755 25.9611C16.7515 25.9154 16.7338 25.8783 16.7224 25.8533C16.7167 25.8407 16.7125 25.8312 16.71 25.8252C16.7087 25.8222 16.7078 25.82 16.7073 25.8188L16.7068 25.8177Z" fill="#008DDC"/>
<path d="M14.985 30.4202C15.0642 30.4126 15.1317 30.3594 15.1579 30.284L15.1582 30.2832C15.1582 30.2832 15.1589 30.2813 15.1594 30.2798C15.1605 30.2767 15.1622 30.272 15.1644 30.2658C15.1689 30.2534 15.1756 30.2349 15.1844 30.2111C15.202 30.1637 15.2279 30.0955 15.2607 30.0134C15.3267 29.8488 15.42 29.6303 15.5302 29.4118C15.6414 29.1915 15.7657 28.9795 15.892 28.8232C15.955 28.7451 16.014 28.6868 16.0669 28.6483C16.1137 28.6144 16.1476 28.6018 16.1698 28.5983L16.1786 28.5973C16.2221 28.5943 16.3156 28.6297 16.457 28.7844C16.5875 28.9273 16.7191 29.1283 16.8385 29.3409C16.9568 29.5517 17.0583 29.7648 17.1305 29.926C17.1665 30.0064 17.195 30.0733 17.2144 30.12C17.2241 30.1433 17.2315 30.1615 17.2364 30.1738C17.2389 30.1799 17.2407 30.1845 17.2419 30.1875C17.2425 30.1891 17.2432 30.1909 17.2432 30.1909L17.2435 30.1916C17.2754 30.2729 17.3553 30.3251 17.4423 30.3213C17.5293 30.3174 17.6043 30.2585 17.6288 30.1747L17.6291 30.1739C17.6291 30.1739 17.6296 30.1722 17.63 30.1708C17.6309 30.1679 17.6322 30.1635 17.634 30.1576C17.6376 30.1458 17.6431 30.1281 17.6504 30.1054C17.665 30.0599 17.6867 29.9944 17.7149 29.9154C17.7716 29.757 17.8537 29.5463 17.956 29.3347C18.0591 29.1214 18.1787 28.9157 18.3081 28.7617C18.4376 28.6076 18.5524 28.5343 18.6459 28.5202L18.6549 28.5191C18.7589 28.5075 18.9049 28.5523 19.0876 28.6678C19.2647 28.7796 19.4477 28.9396 19.6159 29.1084C19.7832 29.2763 19.9303 29.4474 20.036 29.577C20.0887 29.6416 20.1308 29.6956 20.1595 29.7331C20.1738 29.7518 20.1848 29.7665 20.1921 29.7763C20.1958 29.7812 20.1985 29.7849 20.2003 29.7873C20.2012 29.7885 20.2022 29.7899 20.2022 29.7899L20.2026 29.7904C20.2557 29.8634 20.3503 29.8929 20.4352 29.8628C20.5201 29.8327 20.5753 29.7502 20.5709 29.6599L20.5707 29.6565C20.5706 29.6539 20.5704 29.6498 20.5702 29.6444C20.5698 29.6336 20.5693 29.6174 20.5688 29.5966C20.5678 29.5548 20.5669 29.4946 20.5675 29.4219C20.5686 29.2757 20.5757 29.0818 20.5986 28.8861C20.6219 28.6878 20.6601 28.5005 20.718 28.3613C20.7755 28.2231 20.8314 28.1801 20.866 28.1693L20.8726 28.1675L20.8833 28.1657C20.9389 28.1586 21.0317 28.1806 21.1666 28.2668C21.3032 28.3542 21.4482 28.4852 21.5843 28.6277C21.719 28.769 21.8386 28.9147 21.9249 29.0258C21.9679 29.0811 22.0022 29.1274 22.0257 29.1597C22.0374 29.1758 22.0464 29.1883 22.0524 29.1967C22.0553 29.2009 22.0576 29.2041 22.059 29.2061L22.0605 29.2083C22.1168 29.2896 22.2233 29.3192 22.313 29.2781C22.4027 29.2369 22.4502 29.1371 22.4257 29.0412C22.4257 29.0412 22.4252 29.0392 22.4248 29.0379C22.4242 29.0353 22.4232 29.0312 22.4219 29.0258C22.4193 29.0149 22.4154 28.9985 22.4106 28.9773C22.401 28.9349 22.3879 28.8735 22.3738 28.7985C22.3455 28.648 22.3141 28.4457 22.3002 28.235C22.2862 28.0221 22.2909 27.8118 22.3288 27.6407C22.3675 27.4659 22.4322 27.3688 22.5066 27.3253C22.5985 27.2716 22.7347 27.2519 22.9137 27.2724C23.0896 27.2927 23.2828 27.3491 23.4669 27.4192C23.6498 27.4888 23.8165 27.569 23.9379 27.6323C23.9984 27.6638 24.0472 27.6908 24.0806 27.7097C24.0973 27.7192 24.1101 27.7267 24.1185 27.7316C24.1227 27.7341 24.1259 27.736 24.1278 27.7372L24.1299 27.7384C24.2262 27.7968 24.3519 27.7661 24.4102 27.6695C24.4684 27.5728 24.4376 27.447 24.3413 27.3886L24.2358 27.5636C24.3413 27.3885 24.3413 27.3886 24.3413 27.3886L24.3398 27.3877C24.3398 27.3877 24.3379 27.3865 24.3365 27.3857C24.3337 27.384 24.3298 27.3817 24.3248 27.3787C24.3146 27.3727 24.3001 27.3643 24.2815 27.3537C24.2444 27.3326 24.1912 27.3032 24.1257 27.2691C23.9951 27.2011 23.8135 27.1135 23.6115 27.0366C23.4108 26.9602 23.1825 26.8915 22.9601 26.8659C22.7409 26.8407 22.502 26.8545 22.3014 26.9717C22.0834 27.0991 21.9799 27.3304 21.9308 27.552C21.8809 27.7774 21.8782 28.0316 21.8934 28.2619C21.8958 28.2981 21.8987 28.3339 21.9019 28.3693C21.8942 28.3611 21.8865 28.3529 21.8787 28.3447C21.7326 28.1917 21.5617 28.0343 21.3856 27.9217C21.2167 27.8137 21.003 27.7211 20.7872 27.7675C20.5512 27.8182 20.4178 28.0209 20.3418 28.2036C20.2624 28.3945 20.2187 28.6256 20.1938 28.8383C20.1831 28.9292 20.1757 29.0192 20.1705 29.1044C20.0908 29.0137 20.0009 28.9162 19.9042 28.8191C19.7255 28.6398 19.5182 28.4563 19.3049 28.3216C19.0972 28.1904 18.8529 28.0853 18.6099 28.1124C18.358 28.1405 18.1527 28.312 17.9965 28.4979C17.836 28.6889 17.6991 28.9287 17.5892 29.156C17.5209 29.2973 17.4614 29.4371 17.4118 29.5628C17.3495 29.4323 17.2757 29.2861 17.1936 29.14C17.0683 28.9169 16.9189 28.6846 16.7574 28.5079C16.6068 28.343 16.3972 28.1725 16.1515 28.189C16.0285 28.1972 15.9193 28.2506 15.8281 28.3168C15.7363 28.3834 15.6518 28.4708 15.5753 28.5655C15.4225 28.7547 15.283 28.9962 15.1666 29.2269C15.0691 29.4201 14.9849 29.6116 14.9199 29.7691C14.8448 29.6601 14.7533 29.5338 14.6496 29.4041C14.5035 29.2213 14.3303 29.0278 14.1426 28.8658C13.9572 28.7057 13.7443 28.5645 13.5183 28.5048C13.2643 28.4377 13.042 28.509 12.8658 28.6373C12.6958 28.7612 12.5641 28.9401 12.4658 29.1091C12.3662 29.2804 12.2927 29.4558 12.2444 29.5867C12.2201 29.6526 12.2018 29.7082 12.1894 29.7477C12.1832 29.7675 12.1785 29.7834 12.1753 29.7945C12.1737 29.8001 12.1725 29.8045 12.1716 29.8077C12.1711 29.8093 12.1705 29.8115 12.1705 29.8115L12.1702 29.8126C12.1702 29.8126 12.17 29.8133 12.3667 29.8669L12.17 29.8133C12.1405 29.9223 12.2047 30.0347 12.3134 30.0643C12.422 30.0939 12.5339 30.0295 12.5634 29.9205L12.5641 29.9183C12.5646 29.9163 12.5655 29.9131 12.5668 29.9088C12.5693 29.9001 12.5732 29.887 12.5785 29.87C12.5891 29.8361 12.6052 29.7872 12.6267 29.7288C12.6701 29.6111 12.7342 29.4593 12.8179 29.3153C12.903 29.1691 13.0004 29.0448 13.1052 28.9685C13.2039 28.8967 13.3022 28.8708 13.4145 28.9005C13.5547 28.9375 13.7123 29.0339 13.8767 29.1759C14.0388 29.3158 14.1946 29.4887 14.3316 29.6602C14.4682 29.831 14.5832 29.9967 14.6641 30.1199C14.7044 30.1813 14.7361 30.2319 14.7576 30.2668C14.7683 30.2842 14.7764 30.2977 14.7818 30.3067C14.7845 30.3112 14.7865 30.3146 14.7877 30.3168L14.7891 30.3191C14.8292 30.3881 14.9058 30.4278 14.985 30.4202Z" fill="#008DDC"/>
<path d="M31.9373 30.543C32.0352 30.6445 32.1965 30.6471 32.2976 30.5488C32.3987 30.4506 32.4013 30.2887 32.3034 30.1872C31.7695 29.6338 31.7492 28.9783 31.9924 28.2608C32.2401 27.5302 32.7456 26.7893 33.194 26.1319L33.2169 26.0978C33.691 25.3783 33.7589 24.4899 33.6111 23.584C33.4607 22.6624 33.0824 21.6904 32.6334 20.789C32.2336 19.9867 32.3594 19.207 32.5985 18.6094C32.7179 18.311 32.8638 18.0634 32.9799 17.8906C33.0378 17.8044 33.0879 17.7374 33.1229 17.6927C33.1404 17.6704 33.154 17.6537 33.163 17.643C33.1675 17.6376 33.1707 17.6337 33.1727 17.6314C33.1737 17.6302 33.1747 17.6291 33.1747 17.6291C33.2676 17.5233 33.2578 17.3616 33.1525 17.2682C33.047 17.1747 32.886 17.1847 32.7928 17.2905L32.9837 17.4598C32.7928 17.2905 32.7928 17.2905 32.7928 17.2905L32.792 17.2914L32.7906 17.293C32.7896 17.2942 32.7881 17.2958 32.7864 17.2979C32.7829 17.3019 32.7781 17.3077 32.772 17.3149C32.7599 17.3294 32.743 17.3502 32.7222 17.3768C32.6805 17.4301 32.623 17.507 32.5574 17.6046C32.4266 17.7993 32.2616 18.0789 32.1256 18.4189C31.8538 19.0982 31.6905 20.0402 32.1776 21.0177C32.6152 21.8962 32.9694 22.8162 33.1082 23.6667C33.2471 24.5185 33.1654 25.2685 32.7735 25.8431C32.3352 26.4857 31.7845 27.2864 31.51 28.096C31.2311 28.9187 31.2224 29.802 31.9373 30.543Z" fill="#008DDC"/>
<path d="M31.7678 14.4592C32.0287 14.3534 32.3257 14.4799 32.4312 14.7417C32.5366 15.0036 32.4105 15.3017 32.1496 15.4075C31.8886 15.5133 31.5917 15.3868 31.4862 15.125C31.3808 14.8631 31.5068 14.565 31.7678 14.4592Z" fill="#008DDC"/>
<path d="M31.1322 13.1081C31.3932 13.0023 31.6902 13.1288 31.7956 13.3907C31.901 13.6526 31.7749 13.9506 31.514 14.0564C31.2531 14.1623 30.9561 14.0357 30.8507 13.7739C30.7452 13.512 30.8712 13.2139 31.1322 13.1081Z" fill="#008DDC"/>
<path d="M29.8898 14.1176C30.1508 14.0118 30.4477 14.1383 30.5532 14.4001C30.6586 14.662 30.5325 14.9601 30.2716 15.0659C30.0107 15.1717 29.7137 15.0452 29.6082 14.7833C29.5028 14.5214 29.6288 14.2234 29.8898 14.1176Z" fill="#008DDC"/>
<path d="M33.6854 11.3054C33.7838 11.3008 33.8598 11.217 33.8551 11.1182L33.6769 11.1266C33.8551 11.1182 33.8551 11.1182 33.8551 11.1182L33.855 11.1172L33.8549 11.1146C33.8548 11.1124 33.8547 11.109 33.8545 11.1047C33.854 11.0961 33.8533 11.0834 33.8524 11.0668C33.8506 11.0337 33.8478 10.9854 33.8439 10.924C33.8359 10.8012 33.8235 10.6259 33.8051 10.4155C33.7683 9.99511 33.7079 9.4325 33.6132 8.86671C33.5189 8.30325 33.3889 7.72647 33.21 7.28268C33.1207 7.06126 33.0152 6.86252 32.8883 6.71414C32.7609 6.56529 32.5982 6.452 32.3976 6.44036C32.1944 6.42856 32.0187 6.52772 31.8754 6.66548C31.7322 6.80323 31.604 6.99541 31.4891 7.21312C31.2586 7.64963 31.0604 8.22948 30.899 8.80049C30.7369 9.37374 30.6093 9.94785 30.5223 10.3779C30.4787 10.5931 30.4452 10.7727 30.4226 10.8986C30.4113 10.9616 30.4027 11.0112 30.3969 11.0451C30.394 11.0621 30.3919 11.0752 30.3904 11.0841C30.3896 11.0885 30.3891 11.0919 30.3887 11.0942L30.3882 11.0968L30.3881 11.0975C30.3881 11.0975 30.3881 11.0978 30.5641 11.1266L30.3881 11.0975C30.3723 11.1951 30.4382 11.2874 30.5354 11.3033C30.6326 11.3192 30.7243 11.253 30.7401 11.1554L30.7402 11.1548L30.7406 11.1525C30.741 11.1504 30.7415 11.1472 30.7422 11.143C30.7436 11.1346 30.7457 11.122 30.7485 11.1055C30.7542 11.0725 30.7626 11.024 30.7737 10.9621C30.7959 10.8384 30.8289 10.6614 30.8719 10.4491C30.9579 10.0242 31.0835 9.45965 31.2422 8.89818C31.4015 8.33446 31.5916 7.78349 31.8043 7.38071C31.9109 7.17878 32.018 7.02417 32.1222 6.92398C32.2263 6.82381 32.3102 6.79386 32.377 6.79775C32.4466 6.80178 32.5267 6.84113 32.6176 6.94735C32.7089 7.05406 32.797 7.21286 32.8793 7.41697C33.0435 7.82423 33.1684 8.37042 33.2614 8.92601C33.354 9.47926 33.4135 10.0318 33.4497 10.4468C33.4678 10.6541 33.4801 10.8266 33.4879 10.9471C33.4917 11.0073 33.4945 11.0545 33.4963 11.0866C33.4971 11.1026 33.4978 11.1149 33.4982 11.123C33.4984 11.1271 33.4985 11.1302 33.4986 11.1322L33.4988 11.1344C33.5034 11.2332 33.587 11.3101 33.6854 11.3054Z" fill="#008DDC"/>
<path d="M24.555 20.5738C24.555 20.5738 26.3348 19.9007 27.055 19.0002C27.1075 18.9345 27.1759 18.8836 27.254 18.8527C27.4635 18.7699 27.8557 18.6773 27.9818 19.074C28.0698 19.3509 27.9601 19.6524 27.7221 19.8179C27.2872 20.1206 26.3213 20.5945 24.555 20.5738Z" fill="#008DDC"/>
<path d="M24.3084 21.499C24.3084 21.499 26.8088 21.1488 28.0033 20.1936C28.0904 20.1239 28.1939 20.078 28.3039 20.0609C28.5992 20.015 29.134 20.0099 29.1819 20.5606C29.2154 20.9448 28.9857 21.3032 28.6294 21.4478C27.9781 21.7123 26.5896 22.0431 24.3084 21.499Z" fill="#008DDC"/>
<path d="M11.215 24.6828C11.1791 24.9233 10.9558 25.0891 10.7162 25.0532C10.4766 25.0172 10.3113 24.7931 10.3471 24.5526C10.383 24.3121 10.6063 24.1463 10.8459 24.1822C11.0856 24.2181 11.2508 24.4423 11.215 24.6828Z" fill="#008DDC"/>
<path d="M11.2937 23.5816C11.2579 23.8221 11.0345 23.9879 10.7949 23.952C10.5553 23.916 10.39 23.6919 10.4258 23.4514C10.4617 23.2109 10.685 23.045 10.9246 23.081C11.1643 23.1169 11.3295 23.3411 11.2937 23.5816Z" fill="#008DDC"/>
<path d="M11.2914 22.4511C11.2556 22.6916 11.0323 22.8574 10.7926 22.8215C10.553 22.7855 10.3878 22.5614 10.4236 22.3209C10.4594 22.0804 10.6827 21.9146 10.9224 21.9505C11.162 21.9865 11.3272 22.2106 11.2914 22.4511Z" fill="#008DDC"/>
<path d="M12.1258 22.3409C12.3317 22.3558 12.6177 22.3646 12.9378 22.3399C13.5723 22.2908 14.3685 22.1077 14.9282 21.5481C14.9881 21.4883 14.9882 21.3911 14.9287 21.3311C14.8691 21.2711 14.7723 21.2709 14.7124 21.3307C14.2297 21.8134 13.5225 21.9869 12.9143 22.0339C12.613 22.0572 12.3427 22.0489 12.1478 22.0348C12.0505 22.0277 11.9723 22.0193 11.9189 22.0126C11.8922 22.0092 11.8717 22.0064 11.8581 22.0044C11.8513 22.0034 11.8462 22.0026 11.843 22.0021C11.8413 22.0018 11.8395 22.0015 11.8395 22.0015L11.8387 22.0014L11.8309 22.0003C11.7506 21.991 11.6763 22.0465 11.6628 22.1275C11.6489 22.211 11.7052 22.2901 11.7884 22.3041L11.8136 22.1527C11.7884 22.304 11.7884 22.3041 11.7884 22.3041L11.7891 22.3042L11.7906 22.3044C11.7906 22.3044 11.7934 22.3049 11.7956 22.3052C11.7998 22.3059 11.8059 22.3068 11.8137 22.308C11.8294 22.3103 11.8521 22.3135 11.8811 22.3171C11.9392 22.3243 12.0226 22.3334 12.1258 22.3409Z" fill="#008DDC"/>
<path d="M12.1882 23.7543C12.3942 23.7693 12.6802 23.7781 13.0002 23.7534C13.6348 23.7043 14.431 23.5211 14.9907 22.9616C15.0505 22.9018 15.0507 22.8046 14.9911 22.7446C14.9315 22.6845 14.8347 22.6844 14.7749 22.7442C14.2921 23.2268 13.585 23.4004 12.9768 23.4474C12.6755 23.4707 12.4052 23.4624 12.2103 23.4483C12.113 23.4412 12.0348 23.4327 11.9814 23.4261C11.9546 23.4227 11.9341 23.4199 11.9206 23.4179C11.9138 23.4169 11.9087 23.416 11.9054 23.4155C11.9038 23.4153 11.9019 23.415 11.9019 23.415L11.9012 23.4149L11.8934 23.4138C11.8131 23.4045 11.7387 23.46 11.7253 23.5409C11.7114 23.6245 11.7676 23.7036 11.8509 23.7176L11.8761 23.5662C11.8509 23.7175 11.8509 23.7176 11.8509 23.7176L11.8516 23.7177L11.853 23.7179C11.853 23.7179 11.8559 23.7183 11.858 23.7187C11.8623 23.7193 11.8684 23.7203 11.8762 23.7214C11.8919 23.7238 11.9146 23.7269 11.9436 23.7306C12.0017 23.7378 12.0851 23.7469 12.1882 23.7543Z" fill="#008DDC"/>
<path d="M12.1322 25.0473C12.3381 25.0622 12.6241 25.0711 12.9442 25.0463C13.5787 24.9972 14.3749 24.8141 14.9346 24.2545C14.9944 24.1947 14.9946 24.0976 14.935 24.0375C14.8755 23.9775 14.7786 23.9773 14.7188 24.0371C14.2361 24.5198 13.5289 24.6933 12.9207 24.7404C12.6194 24.7637 12.3491 24.7554 12.1542 24.7412C12.0569 24.7342 11.9787 24.7257 11.9253 24.719C11.8986 24.7157 11.8781 24.7128 11.8645 24.7108C11.8577 24.7098 11.8526 24.709 11.8494 24.7085C11.8477 24.7082 11.8459 24.7079 11.8459 24.7079L11.8451 24.7078L11.8373 24.7067C11.757 24.6974 11.6827 24.7529 11.6692 24.8339C11.6553 24.9175 11.7115 24.9966 11.7948 25.0105L11.82 24.8591C11.7948 25.0105 11.7948 25.0105 11.7948 25.0105L11.7955 25.0106L11.797 25.0108C11.797 25.0108 11.7998 25.0113 11.802 25.0116C11.8062 25.0123 11.8123 25.0133 11.8201 25.0144C11.8358 25.0167 11.8585 25.0199 11.8875 25.0235C11.9456 25.0308 12.029 25.0398 12.1322 25.0473Z" fill="#008DDC"/>
<path d="M26.6162 35.0039C26.6162 35.0039 26.6183 35.0029 26.6204 35.0018C26.6247 34.9996 26.6322 34.9959 26.6428 34.9907C26.664 34.9804 26.6977 34.9643 26.7433 34.9438C26.8347 34.9028 26.9738 34.8441 27.1564 34.7776C27.5217 34.6446 28.0597 34.4809 28.7365 34.3651C30.0887 34.1339 31.9942 34.094 34.1923 34.8726L34.2128 34.8794C34.2611 34.8942 34.3113 34.9017 34.3619 34.9017V34.3903C34.3619 34.8997 34.3619 34.9017 34.3619 34.9017H34.3642L34.3669 34.9017C34.3687 34.9017 34.3708 34.9017 34.373 34.9016C34.3774 34.9016 34.3827 34.9014 34.3886 34.9012C34.4003 34.9007 34.415 34.9 34.4321 34.8986C34.4661 34.8959 34.5111 34.8908 34.5633 34.881C34.6655 34.8618 34.8092 34.8223 34.9568 34.7376C35.108 34.651 35.2653 34.5153 35.3777 34.3103C35.4901 34.1052 35.5398 33.8628 35.5262 33.5909C35.5262 33.5909 35.5262 33.5898 35.5261 33.5858C35.526 33.582 35.5259 33.5767 35.5259 33.5698C35.5259 33.556 35.526 33.5379 35.5263 33.5151C35.527 33.4694 35.5286 33.4095 35.5311 33.3352C35.536 33.1867 35.5442 32.9876 35.5552 32.7427C35.5771 32.2529 35.6094 31.5883 35.647 30.7944C35.7221 29.2083 35.8178 27.114 35.8905 24.9052C35.9633 22.6971 36.0133 20.3706 35.9969 18.3206C35.9805 16.2814 35.8985 14.4813 35.6983 13.3442C35.6068 12.8239 35.555 12.3013 35.5529 11.7799C35.5494 10.8945 35.4783 9.49403 35.1363 8.08023C34.7968 6.67673 34.1733 5.18878 33.0122 4.20806C32.6715 3.92026 32.1766 3.93533 31.8511 4.22664L31.8089 4.26481C30.9596 5.03835 28.6933 7.49772 28.2719 11.9961C28.2175 11.9651 28.1606 11.9358 28.1014 11.9092C28.066 11.7195 28.0138 11.4491 27.946 11.124C27.8103 10.4737 27.6116 9.60007 27.36 8.71324C27.1097 7.83115 26.8012 6.91443 26.4414 6.18836C26.2618 5.82601 26.0597 5.49094 25.8317 5.2279C25.6087 4.9706 25.319 4.73378 24.9562 4.66097C24.7377 4.6171 24.5447 4.67969 24.4035 4.75918C24.2654 4.83692 24.1479 4.94586 24.0504 5.05461C23.8551 5.27235 23.6673 5.57213 23.4914 5.89945C23.1359 6.56104 22.7705 7.44688 22.4448 8.31846C22.1173 9.19461 21.8229 10.0753 21.6108 10.7355C21.5046 11.066 21.4188 11.342 21.3594 11.5357C21.3516 11.5613 21.3442 11.5854 21.3373 11.608C21.2138 11.6604 21.0448 11.7336 20.8413 11.8255C20.401 12.0243 19.797 12.3113 19.1429 12.6642C17.8584 13.3573 16.2939 14.3492 15.4499 15.4715C14.0076 17.3894 11.7278 18.213 10.5218 18.2476C9.80944 18.268 8.78969 18.3989 7.80948 18.5986C6.84043 18.7961 5.84595 19.0734 5.2149 19.4099C4.42883 19.8291 4.16096 20.6998 4.06321 21.3113C4.01145 21.6351 3.99947 21.9342 4.00002 22.1509C4.00029 22.2599 4.00376 22.3498 4.00726 22.4137C4.00882 22.4423 4.01046 22.4658 4.01177 22.4836C4.01107 22.5027 4.01015 22.5291 4.00939 22.5619C4.00776 22.6313 4.00651 22.7297 4.00778 22.8488C4.01032 23.0856 4.02296 23.4101 4.06444 23.7536C4.10544 24.0931 4.17711 24.4732 4.30674 24.8115C4.4318 25.1378 4.64155 25.506 5.01063 25.7081L5.16537 25.7935C5.93476 26.2208 6.65301 26.6495 7.89801 26.8838C8.63755 27.0229 9.15758 26.8518 9.47986 26.5104C9.56791 26.4171 9.63205 26.32 9.67891 26.2301C9.70446 26.2297 9.73252 26.2295 9.76318 26.2299C10.0694 26.2341 10.6208 26.2855 11.5428 26.4932C12.5551 26.7213 13.6125 26.7189 14.4027 26.664C14.8008 26.6364 15.1377 26.5949 15.3762 26.5602C15.4956 26.5428 15.5906 26.5271 15.6567 26.5155C15.6898 26.5097 15.7156 26.5049 15.7336 26.5016L15.7374 26.5008C15.7391 26.5007 15.7409 26.5005 15.7428 26.5003C15.7617 26.4984 15.7896 26.4956 15.8258 26.4918C15.8984 26.4844 16.0047 26.4733 16.1401 26.4588C16.4109 26.4299 16.7982 26.3872 17.2653 26.3323C18.1989 26.2224 19.4535 26.0633 20.7337 25.8661C22.0112 25.6695 23.3261 25.4332 24.3759 25.168C24.7277 25.0791 25.0565 24.9852 25.3479 24.8863C25.193 25.2569 24.9831 25.6851 24.7035 26.1258C23.9041 27.3859 22.5467 28.7361 20.2726 29.1674C17.8479 29.6272 16.321 29.7288 15.4136 29.7196C14.9605 29.7149 14.6643 29.6827 14.4898 29.6546C14.4027 29.6406 14.3463 29.6277 14.3159 29.6199C14.3037 29.6137 14.2898 29.6066 14.2742 29.5989C14.217 29.5708 14.1368 29.534 14.038 29.4952C13.8422 29.4184 13.5638 29.3304 13.2413 29.2925C12.6143 29.2188 11.8001 29.3384 11.1545 30.0902C11.1144 30.1039 11.0642 30.12 11.0052 30.1369C10.8309 30.1867 10.5862 30.2416 10.3057 30.2626C9.74201 30.3048 9.07881 30.2089 8.52318 29.7133C7.75639 29.0292 6.9146 28.675 6.27119 28.4913C5.94843 28.3991 5.67169 28.3487 5.4731 28.3212C5.37367 28.3074 5.29339 28.2993 5.23621 28.2946C5.20761 28.2922 5.18474 28.2907 5.1681 28.2897C5.15977 28.2893 5.15299 28.2889 5.14783 28.2887C5.14526 28.2886 5.14309 28.2885 5.14133 28.2884L5.13898 28.2883L5.13805 28.2883C5.13805 28.2883 5.13742 28.2888 5.13518 28.3521L5.11972 28.7993C4.61399 28.8622 4.61406 28.8628 4.61406 28.8628L4.61414 28.8636L4.61436 28.8653C4.61436 28.8653 4.61472 28.8681 4.61496 28.8699C4.61543 28.8734 4.61604 28.878 4.61683 28.8835C4.61839 28.8945 4.62062 28.9093 4.62362 28.9278C4.62963 28.9647 4.63877 29.0161 4.65206 29.0804C4.67863 29.2088 4.72193 29.389 4.79012 29.6072C4.92634 30.043 5.16317 30.6338 5.56794 31.2666C6.38367 32.5418 7.86614 33.9617 10.5074 34.6346C13.0661 35.2864 14.6737 35.3279 15.8579 35.3208C17.0542 35.3136 17.654 35.2742 18.389 35.658C18.949 35.9504 19.7676 36.0158 20.5825 35.997C21.424 35.9776 22.3647 35.8636 23.2362 35.7233C24.1101 35.5826 24.9269 35.4134 25.5245 35.2796C25.8237 35.2127 26.0686 35.1544 26.2392 35.1128C26.3245 35.092 26.3913 35.0753 26.437 35.0638C26.4598 35.058 26.4774 35.0535 26.4894 35.0504C26.4954 35.0489 26.5 35.0477 26.5032 35.0469C26.5048 35.0465 26.5069 35.0459 26.5069 35.0459L26.5079 35.0457C26.5079 35.0457 26.5084 35.0455 26.3853 34.5683L26.5079 35.0457C26.5453 35.0359 26.582 35.0219 26.6162 35.0039ZM15.5638 25.4927C15.5638 25.4927 15.5622 25.4931 15.5607 25.4934C15.5576 25.494 15.5525 25.4949 15.5455 25.4962C15.5316 25.4989 15.51 25.5028 15.4814 25.5079C15.4242 25.5179 15.3388 25.5321 15.2299 25.5479C15.0118 25.5797 14.7005 25.618 14.3324 25.6436C13.5901 25.6951 12.6428 25.6927 11.766 25.4952C10.7989 25.2773 10.1745 25.2126 9.77711 25.2072C9.57771 25.2044 9.43155 25.2165 9.32542 25.2333C9.27217 25.2416 9.22838 25.2513 9.19254 25.2611C9.17461 25.266 9.1586 25.2709 9.14436 25.2758C9.13724 25.2782 9.13055 25.2806 9.12428 25.283C9.12114 25.2842 9.1181 25.2854 9.11517 25.2865C9.11371 25.2871 9.11226 25.2877 9.11084 25.2883L9.10875 25.2891L9.10771 25.2896C9.10771 25.2896 9.10721 25.2898 9.13152 25.3489L9.30269 25.7621L9.1067 25.29C8.93736 25.3608 8.81943 25.5173 8.79699 25.6992C8.79628 25.7026 8.79433 25.7112 8.79027 25.7228C8.78122 25.7488 8.76558 25.7798 8.74 25.8069C8.7153 25.8331 8.57992 25.9714 8.08583 25.8784C6.9464 25.664 6.3643 25.2839 5.49867 24.8101C5.44366 24.78 5.34978 24.6838 5.25801 24.4443C5.17078 24.2167 5.11234 23.9294 5.07624 23.6305C5.04062 23.3356 5.02918 23.0507 5.0269 22.8378C5.02577 22.7319 5.02689 22.6453 5.02828 22.5859C5.02898 22.5563 5.02974 22.5335 5.0303 22.5187C5.03058 22.5112 5.03082 22.5057 5.03097 22.5024C5.03104 22.5007 5.03112 22.499 5.03112 22.499L5.03172 22.4802C5.03196 22.4616 5.0312 22.4431 5.02944 22.4246L5.02933 22.4233C5.02914 22.4211 5.02879 22.4171 5.02836 22.4114C5.02748 22.4 5.02621 22.3818 5.02489 22.3576C5.02223 22.3092 5.01944 22.2372 5.01921 22.1482C5.01876 21.9689 5.0289 21.7275 5.06952 21.4733C5.15654 20.929 5.35458 20.4937 5.69313 20.3132C6.18664 20.05 7.05863 19.7953 8.01226 19.601C8.92529 19.415 9.85397 19.296 10.4902 19.2721L10.5509 19.2701C12.0436 19.2273 14.6214 18.2711 16.2634 16.0877C16.9615 15.1593 18.3463 14.2554 19.6255 13.5652C20.2533 13.2265 20.8348 12.95 21.2595 12.7583C21.4716 12.6625 21.644 12.5881 21.7627 12.5379C21.8221 12.5129 21.8681 12.4938 21.8988 12.4812C21.9106 12.4764 21.9201 12.4725 21.9273 12.4696C23.7463 11.886 25.3697 12.1372 26.5491 12.5408C27.1406 12.7431 27.6166 12.9827 27.9428 13.1704C28.1056 13.2641 28.2304 13.3445 28.3128 13.4002C28.3324 13.4134 28.3495 13.4253 28.3642 13.4355C28.4186 13.4884 28.4833 13.5276 28.5532 13.5517C28.7591 13.6316 29.0011 13.5699 29.1418 13.3849C29.239 13.2572 29.267 13.0983 29.2319 12.9535C29.3896 8.32137 31.6279 5.82808 32.4444 5.06784C33.3105 5.8474 33.8379 7.04814 34.1459 8.32157C34.4618 9.62745 34.5304 10.9399 34.5337 11.784C34.5361 12.3704 34.5943 12.9515 34.6947 13.5221C34.8784 14.5657 34.9614 16.2882 34.9777 18.3289C34.994 20.3588 34.9445 22.6695 34.8719 24.8714C34.7994 27.0726 34.704 29.1609 34.629 30.7458C34.5915 31.5374 34.559 32.2053 34.537 32.6969C34.5159 33.1701 34.5023 33.52 34.5084 33.642C34.5141 33.757 34.4915 33.8049 34.4846 33.8174C34.4777 33.83 34.4687 33.8395 34.4512 33.8495C34.4397 33.8562 34.4261 33.8618 34.4119 33.8664C32.0722 33.063 30.0318 33.106 28.5653 33.3568C27.8202 33.4842 27.223 33.6652 26.8087 33.8161C26.6015 33.8916 26.4396 33.9597 26.3275 34.01C26.2748 34.0336 26.2331 34.0534 26.2028 34.0682C26.1983 34.0693 26.1935 34.0705 26.1884 34.0718C26.1451 34.0827 26.081 34.0987 25.9984 34.1189C25.8332 34.1592 25.5947 34.216 25.3027 34.2813C24.718 34.4122 23.9223 34.5769 23.0747 34.7134C22.2248 34.8502 21.3351 34.9565 20.5591 34.9745C19.7564 34.993 19.1701 34.9128 18.8594 34.7506C17.8529 34.2251 16.9629 34.2913 15.8518 34.298C14.7287 34.3047 13.2113 34.2681 10.7582 33.6431C8.38752 33.0392 7.11344 31.7893 6.4256 30.714C6.11628 30.2304 5.92251 29.7769 5.80304 29.425C5.86342 29.4397 5.92663 29.4563 5.99224 29.4751C6.53432 29.6299 7.22503 29.9237 7.8461 30.4778L7.88521 30.5121C8.70881 31.2239 9.66506 31.3363 10.3815 31.2826C10.7467 31.2553 11.061 31.1844 11.2844 31.1206C11.3966 31.0885 11.4872 31.0578 11.5516 31.0344C11.5838 31.0226 11.6095 31.0127 11.6281 31.0053C11.6375 31.0016 11.645 30.9985 11.6507 30.9961C11.6536 30.9949 11.656 30.9939 11.658 30.9931L11.6605 30.992L11.6615 30.9916C11.6615 30.9916 11.6623 30.9912 11.465 30.5291L11.6624 30.9912C11.7422 30.9569 11.812 30.9026 11.8651 30.8335C12.2466 30.3371 12.7116 30.2601 13.1228 30.3085C13.3352 30.3334 13.5268 30.3929 13.6671 30.448C13.7363 30.4751 13.7907 30.5002 13.8262 30.5176C13.8438 30.5263 13.8566 30.533 13.8639 30.5369C13.8676 30.5388 13.8708 30.5406 13.8708 30.5406L13.8697 30.54C13.8936 30.5537 13.9185 30.5653 13.9444 30.5749L14.1218 30.0955C13.9444 30.5749 13.9452 30.5753 13.9452 30.5753L13.9461 30.5756L13.9479 30.5763C13.9492 30.5767 13.9505 30.5772 13.952 30.5777C13.9548 30.5787 13.958 30.5799 13.9616 30.5811C13.9686 30.5835 13.977 30.5863 13.9868 30.5893C14.0064 30.5954 14.0316 30.6027 14.0629 30.6108C14.1255 30.6268 14.2127 30.646 14.3285 30.6646C14.5599 30.7018 14.9071 30.7373 15.4033 30.7423C16.3946 30.7524 17.9905 30.6412 20.4619 30.1725C23.084 29.6752 24.6567 28.1041 25.5632 26.6752C26.0152 25.9628 26.3042 25.2825 26.4808 24.7798C26.5692 24.5279 26.6299 24.3192 26.6689 24.1713C26.6884 24.0973 26.7025 24.0385 26.712 23.9969C26.7167 23.9762 26.7203 23.9597 26.7228 23.9478C26.7241 23.9419 26.7251 23.9371 26.7258 23.9335C26.7262 23.9317 26.7267 23.929 26.7267 23.929L26.727 23.9274C26.727 23.9274 26.7273 23.9263 26.2273 23.8275L26.7273 23.9263C26.7745 23.6855 26.6447 23.4451 26.418 23.3533C26.1913 23.2614 25.9316 23.3441 25.7991 23.5503C25.8079 23.5365 25.7939 23.5631 25.7077 23.6182C25.6276 23.6694 25.5124 23.7282 25.3579 23.7921C25.049 23.9198 24.63 24.049 24.127 24.1761C23.1239 24.4296 21.8462 24.66 20.5792 24.8551C19.3149 25.0498 18.0732 25.2074 17.1466 25.3164C16.6836 25.3708 16.2999 25.4131 16.0321 25.4417C15.8983 25.4561 15.7934 25.467 15.7222 25.4743C15.6866 25.4779 15.6594 25.4807 15.6411 25.4825C15.632 25.4835 15.6251 25.4841 15.6206 25.4846C15.6183 25.4848 15.6155 25.4851 15.6155 25.4851L15.6143 25.4852C15.5976 25.4868 15.5803 25.4894 15.5638 25.4927ZM27.0064 11.6177C26.9642 11.6025 26.9213 11.5875 26.8779 11.5726C25.7456 11.1852 24.2279 10.9163 22.513 11.2618C22.5345 11.194 22.5571 11.123 22.5808 11.0494C22.7902 10.3978 23.0792 9.53354 23.399 8.67769C23.7206 7.81727 24.0666 6.98391 24.3885 6.38502C24.5512 6.0821 24.6937 5.8663 24.8079 5.73886C24.8207 5.72458 24.8325 5.71225 24.8432 5.70159C24.8981 5.73488 24.972 5.79442 25.0627 5.89915C25.2119 6.07128 25.3693 6.32189 25.5288 6.64385C25.8473 7.28642 26.1356 8.13287 26.3797 8.99335C26.6225 9.84909 26.8157 10.6975 26.9484 11.3336C26.9693 11.4339 26.9886 11.5289 27.0064 11.6177ZM8.79524 25.715L8.79531 25.7144L8.79546 25.713L8.79568 25.7105C8.79585 25.7089 8.79617 25.7062 8.79617 25.7062C8.79639 25.7042 8.79673 25.7014 8.79673 25.7014C8.79619 25.7059 8.79566 25.7105 8.79524 25.715ZM5.11972 28.7993L5.13727 28.2882C4.98824 28.2831 4.84443 28.3437 4.74376 28.4541C4.64309 28.5645 4.59574 28.7143 4.61406 28.8628L5.11972 28.7993Z" fill="#008DDC"/>
</svg>
